<svg  viewBox="0 0 22 29" fill="none" xmlns="http://www.w3.org/2000/svg">
<path d="M10.9999 28.1667L1.39992 20.9667C1.06659 20.7222 0.805474 20.4111 0.616585 20.0333C0.427696 19.6556 0.333252 19.2556 0.333252 18.8333V2.83334C0.333252 2.10001 0.594363 1.47223 1.11659 0.950005C1.63881 0.427783 2.26659 0.166672 2.99992 0.166672H18.9999C19.7333 0.166672 20.361 0.427783 20.8833 0.950005C21.4055 1.47223 21.6666 2.10001 21.6666 2.83334V18.8333C21.6666 19.2556 21.5721 19.6556 21.3833 20.0333C21.1944 20.4111 20.9333 20.7222 20.5999 20.9667L10.9999 28.1667ZM10.9999 24.8333L18.9999 18.8333V2.83334H2.99992V18.8333L10.9999 24.8333ZM9.59992 17.5L17.1333 9.96667L15.2666 8.03334L9.59992 13.7L6.79992 10.9L4.86659 12.7667L9.59992 17.5ZM10.9999 2.83334H2.99992H18.9999H10.9999Z" fill="#C800F2"/>
</svg>
