<svg width="24" height="24" viewBox="0 0 24 24" fill="none" xmlns="http://www.w3.org/2000/svg">
<path d="M12.0125 17.5C13.2875 17.5 14.3625 17.0625 15.2375 16.1875C16.1125 15.3125 16.55 14.2417 16.55 12.975C16.55 11.7083 16.1125 10.6375 15.2375 9.7625C14.3625 8.8875 13.2875 8.45 12.0125 8.45C10.7375 8.45 9.66667 8.8875 8.8 9.7625C7.93333 10.6375 7.5 11.7083 7.5 12.975C7.5 14.2417 7.93333 15.3125 8.8 16.1875C9.66667 17.0625 10.7375 17.5 12.0125 17.5ZM12.0125 15.4C11.3208 15.4 10.7458 15.1651 10.2875 14.6954C9.82917 14.2257 9.6 13.6507 9.6 12.9704C9.6 12.2901 9.82917 11.7167 10.2875 11.25C10.7458 10.7833 11.3208 10.55 12.0125 10.55C12.7042 10.55 13.2833 10.7849 13.75 11.2546C14.2167 11.7243 14.45 12.2993 14.45 12.9796C14.45 13.6599 14.2167 14.2333 13.75 14.7C13.2833 15.1667 12.7042 15.4 12.0125 15.4ZM4.1 21C3.5225 21 3.02813 20.7944 2.61688 20.3831C2.20563 19.9719 2 19.4775 2 18.9V7.075C2 6.4975 2.20563 6.00312 2.61688 5.59187C3.02813 5.18062 3.5225 4.975 4.1 4.975H7.15L8.975 3H15.0132L16.875 4.975H19.9C20.4775 4.975 20.9719 5.18062 21.3831 5.59187C21.7944 6.00312 22 6.4975 22 7.075V18.9C22 19.4775 21.7944 19.9719 21.3831 20.3831C20.9719 20.7944 20.4775 21 19.9 21H4.1ZM19.9 18.9V7.075H15.975L14.125 5.1H9.9L8.05 7.075H4.1V18.9H19.9Z" fill="#FAF0FD"/>
</svg>
