<svg viewBox="0 0 167 45" fill="none" xmlns="http://www.w3.org/2000/svg">
<g clip-path="url(#clip0_186_59496)">
<path d="M50.67 5.18806C50.094 8.99808 48.9421 18.2399 51.4106 27.4005C51.9044 28.6162 53.1385 28.2921 53.6323 27.7246C53.7969 27.4815 55.4423 25.9412 55.4423 25.9412C56.0183 25.1303 56.5942 25.3734 57.0056 25.9412C57.417 26.5089 58.5689 28.2921 60.2968 28.3731C62.0244 28.454 64.7397 26.4274 65.8092 25.6165C66.5497 26.9949 67.4546 28.2921 68.9357 28.2106C70.4169 28.1297 71.8153 27.0759 73.0497 25.7787C73.9548 26.8328 74.9422 27.9675 76.0941 27.8865C77.2458 27.8056 79.3853 26.5894 81.4421 24.7247C82.2649 23.8331 83.17 24.2384 83.7457 25.13C84.3214 26.0216 85.1444 27.4809 86.2142 27.4809C87.2837 27.4809 88.8467 26.0216 89.3402 25.6163C89.834 25.2115 90.3276 24.8869 90.9038 25.5353L92.1379 26.67C92.8785 27.4 94.4417 27.2378 95.5934 26.1838C96.7453 25.1297 96.9921 24.8059 97.4856 24.8059C97.9794 24.8059 98.2262 25.4544 98.7197 25.9406C99.2135 26.4269 102.998 29.6697 108.017 24.6435C108.1 27.1568 107.524 41.2619 107.524 43.2891C107.524 44.2616 108.675 44.5862 110.321 44.2616C111.966 43.9375 112.789 43.4507 112.707 41.1003C112.625 38.7494 112.296 27.1568 112.296 27.1568C112.543 25.2922 114.188 22.2116 115.916 22.1306C117.644 22.0494 116.821 24.1572 115.998 24.1572C115.176 24.1572 114.27 24.5625 114.27 25.2919C114.27 26.0213 114.517 28.1291 119.372 28.1291C124.226 28.1291 124.802 26.5888 126.119 26.0213C126.941 27.5616 129.409 29.9941 136.238 25.6972C137.637 27.3182 140.27 29.3453 143.15 27.3182C144.055 26.5888 144.96 24.8863 144.631 23.427C144.384 22.8598 144.548 22.6166 144.96 22.6166H147.675C148.251 22.6166 149.238 23.0219 149.567 24.6432C149.896 26.2647 151.048 27.6429 151.953 27.5614C152.858 27.4804 154.586 26.1026 155.573 25.1295C156.396 26.2647 159.934 31.5341 166.434 22.6976C167.01 21.887 166.105 21.4816 165.611 22.0491C165.117 22.6166 163.636 23.5085 162.402 23.5892C161.168 23.6707 159.687 22.4544 158.535 20.9141C157.384 19.3738 156.067 19.9411 155.244 21.1573C154.668 21.8057 154.339 22.4542 153.681 23.1836C153.269 22.4542 152.776 20.9141 151.953 20.3466C151.13 19.7792 150.472 19.6982 148.497 20.1845C146.523 20.6707 144.301 20.9141 142.08 20.9951C140.846 20.9141 141.175 21.4816 141.257 21.9679C141.339 22.4544 142.244 24.4808 140.599 24.5622C138.954 24.6432 139.118 22.2113 140.27 20.9141C140.846 20.3466 140.023 19.1304 139.118 19.617C138.213 20.1035 137.637 20.3466 136.896 21.4814C136.156 22.6164 134.593 24.3188 132.042 24.3998C129.491 24.4808 130.232 21.5626 130.314 20.2654C130.314 19.5357 129.821 18.8873 128.504 19.2117C127.187 19.536 125.46 19.3738 125.624 22.9405C124.72 24.2376 122.662 25.0483 121.017 24.8051C120.523 24.7236 120.359 24.4805 120.523 23.9135C120.688 23.3458 121.099 20.1845 118.631 19.3736C116.162 18.5629 114.27 19.6979 113.036 20.7517C112.378 21.0761 112.213 20.7517 112.213 20.1842L112.295 17.1848C112.295 15.8067 109.498 15.4823 109.087 17.1036C108.675 18.7249 108.182 21.8867 105.713 23.0217C103.245 24.1564 102.422 22.6971 101.106 21.0758C99.7892 19.4545 98.473 19.5355 96.9918 20.9948L95.5107 22.373C94.9347 22.8592 94.6058 22.6971 94.1123 21.9674C93.6185 21.238 93.2893 20.2649 92.3844 20.1839C91.4795 20.103 91.3146 20.4271 90.6565 20.9136L88.7643 22.373C88.024 22.9402 87.8594 22.9402 87.1191 21.9674C87.1191 21.9674 85.8847 19.9408 84.6509 19.9408C83.4165 19.9408 83.0051 20.6705 82.2649 21.238C82.2649 21.238 80.3724 22.5351 79.7142 23.1024C79.0561 23.6701 77.1636 24.8049 75.3535 22.1296C74.6954 21.1567 73.5435 20.4271 72.7207 21.8052C71.898 23.1831 70.5818 25.2909 69.5944 24.6424C68.6071 23.994 70.2526 22.1296 71.4866 21.9671C72.7207 21.8052 71.9804 20.2646 70.7461 20.1837C69.5117 20.1027 67.5373 20.9133 66.6322 21.9671C65.7273 23.0211 64.2461 24.2368 62.7653 24.1561C61.2844 24.0746 60.9552 22.9399 60.2146 21.3999C59.4741 19.8596 58.1578 20.0218 57.1705 20.8324C56.1832 21.643 55.9361 21.8862 55.1958 22.7777C54.4553 23.6699 54.4553 23.1831 54.3731 22.6161C54.2907 22.0486 53.7971 11.5908 54.6201 4.86237C54.9482 3.16148 51.4103 2.59398 50.67 5.18806Z" fill="white"/>
<path d="M128.505 17.6818C129.918 17.6818 131.064 16.5526 131.064 15.1596C131.064 13.7667 129.918 12.6375 128.505 12.6375C127.091 12.6375 125.945 13.7667 125.945 15.1596C125.945 16.5526 127.091 17.6818 128.505 17.6818ZM46.5567 20.2668C46.2278 20.5102 36.9304 23.5903 31.8292 23.9149V5.10719C34.7912 5.18814 40.386 6.40436 43.9239 7.70126C44.7466 8.10658 46.4745 7.6203 44.6645 5.83686C40.4681 2.51312 33.886 0 25.1646 0C16.4432 0 0.810547 4.78309 0.810547 14.5109C0.810547 24.2388 13.3167 29.1031 25.2468 29.1031C33.6392 29.1031 41.4555 26.1034 47.1327 20.7531C48.0378 19.8615 46.8856 20.0237 46.5567 20.2668ZM18.3344 23.9009C11.2326 22.4596 6.19844 18.8351 6.19844 14.5922C6.19844 10.3508 11.2367 6.72765 18.3344 5.28529V23.9009ZM162.768 17.8318C162.105 17.8318 161.566 18.3459 161.566 18.9737C161.566 19.6147 162.105 20.1288 162.768 20.1288C163.429 20.1288 163.964 19.6147 163.964 18.9737C163.964 18.3456 163.429 17.8318 162.768 17.8318ZM162.768 19.9043C162.227 19.9043 161.794 19.4976 161.794 18.9737C161.794 18.4661 162.227 18.0561 162.768 18.0561C163.303 18.0561 163.736 18.4659 163.736 18.9737C163.736 19.4976 163.303 19.9043 162.768 19.9043Z" fill="white"/>
<path d="M163.382 18.6744C163.382 18.5669 163.332 18.4533 163.233 18.3978C163.131 18.3426 163.019 18.3359 162.906 18.3359H162.322V19.6212H162.52V19.029H162.754L163.137 19.6212H163.365L162.959 19.029C163.197 19.0226 163.382 18.9284 163.382 18.6744ZM162.738 18.8695H162.52V18.4825H162.867C163.035 18.4825 163.184 18.5053 163.184 18.6709C163.184 18.9021 162.926 18.8695 162.738 18.8695Z" fill="white"/>
</g>
<defs>
<clipPath id="clip0_186_59496">
<rect width="165.857" height="44.3843" fill="white" transform="translate(0.785645)"/>
</clipPath>
</defs>
</svg>
