<svg width="172" height="52" viewBox="0 0 172 52" fill="none" xmlns="http://www.w3.org/2000/svg">
<g clip-path="url(#clip0_272_1856)">
<path d="M68.5794 45.4052C68.6155 45.705 68.6317 45.9471 68.7997 46.0753C68.9293 46.146 69.0802 46.1672 69.2242 46.1349C69.3901 46.0993 69.5372 46.0042 69.6379 45.8676C69.8185 45.6201 69.7083 44.5851 69.4572 43.0913C69.4481 43.0089 69.4165 42.9306 69.3659 42.8649C69.3152 42.7993 69.2474 42.7489 69.17 42.7192C69.0193 42.6712 68.856 42.6822 68.713 42.7499C68.6256 42.7747 68.5456 42.8206 68.4801 42.8836C68.4146 42.9466 68.3655 43.0248 68.3373 43.1112C68.2922 43.2918 68.3825 43.8337 68.4385 44.26V44.3268L66.2709 44.5255C67.8623 42.6379 69.282 40.8081 69.842 39.5997C69.8769 39.504 69.8813 39.3999 69.8546 39.3017C69.8309 39.2359 69.7925 39.1764 69.7425 39.1276C69.6924 39.0788 69.6319 39.0419 69.5656 39.0199C69.4929 38.9905 69.4149 38.9766 69.3365 38.9791C69.2581 38.9816 69.1811 39.0004 69.1104 39.0343C68.9354 39.1146 68.7919 39.2505 68.7022 39.4209C68.2473 40.2024 67.7467 40.9563 67.203 41.6788L67.1433 41.751C66.9031 41.4566 66.6105 41.0971 66.475 40.9508C67.6473 39.3378 68.2217 38.3714 68.2217 38.0607C68.2217 37.8909 68.1097 37.806 67.9706 37.7338C67.8263 37.6627 67.6604 37.6491 67.5064 37.6958C67.3245 37.7645 67.1759 37.9003 67.091 38.0752C66.6562 38.8471 66.2131 39.5648 65.7615 40.2283C65.7414 40.2231 65.7228 40.2132 65.7073 40.1994C65.6365 40.1501 65.5566 40.1155 65.4722 40.0975C65.3879 40.0795 65.3008 40.0785 65.216 40.0946C65.1328 40.1094 65.0533 40.1407 64.9823 40.1866C64.9112 40.2325 64.8501 40.2921 64.8024 40.362C64.7057 40.4906 64.6537 40.6472 64.6543 40.8081C64.6604 40.8852 64.6852 40.9596 64.7264 41.0251C64.7676 41.0905 64.824 41.145 64.8909 41.1838C65.4221 41.6539 65.9061 42.1748 66.3359 42.7391C65.794 43.355 65.207 44.1642 64.7301 44.6411L64.582 44.6537H64.3309C64.1396 44.6626 63.9582 44.7417 63.8215 44.8759C63.7106 44.9948 63.6388 45.1449 63.6156 45.3058C63.6073 45.3794 63.6162 45.454 63.6416 45.5235C63.667 45.5931 63.7082 45.6559 63.7619 45.7068C63.8278 45.7592 63.9041 45.7969 63.9857 45.8174C64.0673 45.838 64.1524 45.8409 64.2352 45.826L65.8771 45.6617L66.0578 45.6436C65.6766 47.5655 65.3154 49.3791 64.9306 51.3244C64.9056 51.4095 64.8999 51.499 64.914 51.5865C64.928 51.674 64.9615 51.7573 65.0119 51.8302C65.0618 51.8872 65.1245 51.9316 65.1948 51.9598C65.2651 51.9881 65.341 51.9994 65.4165 51.9928C65.5894 51.987 65.7555 51.9234 65.888 51.8121C66.0406 51.6889 66.1443 51.5154 66.1806 51.3226C66.5726 49.3357 66.9428 47.4806 67.333 45.5117L68.5794 45.4052Z" fill="#2C893A"/>
<path d="M65.0065 46.8701C65.032 46.7933 65.0386 46.7115 65.0257 46.6316C65.0128 46.5517 64.9808 46.4761 64.9324 46.4113C64.8867 46.3615 64.8307 46.3223 64.7684 46.2964C64.706 46.2705 64.6387 46.2586 64.5712 46.2614C64.4145 46.2635 64.2639 46.3219 64.1467 46.4257C64.0168 46.5428 63.9281 46.6986 63.8938 46.8701C63.6028 48.0289 63.2366 49.1675 62.7974 50.2786C62.7602 50.3515 62.738 50.4311 62.7321 50.5126C62.7262 50.5942 62.7367 50.6762 62.763 50.7536C62.7945 50.814 62.839 50.8666 62.8934 50.9075C62.9478 50.9484 63.0106 50.9767 63.0773 50.9903C63.1526 51.007 63.2306 51.0077 63.3062 50.9925C63.3818 50.9772 63.4533 50.9463 63.5163 50.9018C63.7655 50.7392 64.2388 49.5235 64.9956 46.9279L65.0065 46.8701Z" fill="#2C893A"/>
<path d="M68.2705 46.3643C68.1185 46.389 67.9805 46.468 67.8822 46.5865C67.7813 46.7081 67.7247 46.8603 67.7214 47.0182L67.6636 48.7053C67.6556 48.7789 67.6646 48.8533 67.69 48.9229C67.7154 48.9924 67.7564 49.0552 67.8099 49.1063C67.9243 49.1715 68.0569 49.1975 68.1874 49.1803C68.265 49.1794 68.3415 49.163 68.4126 49.1319C68.4836 49.1009 68.5477 49.056 68.6011 48.9997C68.7048 48.8726 68.7621 48.714 68.7636 48.5499L68.8215 46.861C68.8302 46.7874 68.8215 46.7128 68.7961 46.6431C68.7707 46.5735 68.7292 46.5108 68.6751 46.46C68.619 46.415 68.5536 46.3831 68.4836 46.3665C68.4136 46.35 68.3408 46.3492 68.2705 46.3643Z" fill="#2C893A"/>
<path d="M71.9355 48.5301C72.0846 48.3978 72.1798 48.2151 72.2028 48.0171C72.207 47.9414 72.1945 47.8658 72.1661 47.7955C72.1377 47.7253 72.0941 47.6621 72.0385 47.6107C71.9769 47.5615 71.9057 47.5259 71.8294 47.506C71.7532 47.486 71.6737 47.4823 71.5959 47.4951C71.4026 47.534 71.2263 47.6325 71.0919 47.7768C70.1274 48.8191 69.226 49.4025 67.8894 50.042C67.4595 50.2063 67.2626 50.4953 67.3782 50.8873C67.398 50.9584 67.4352 51.0234 67.4862 51.0766C67.5373 51.1299 67.6007 51.1697 67.6708 51.1926C68.023 51.3154 68.8142 50.9198 70.0786 50.0745C70.7477 49.6231 71.3697 49.1057 71.9355 48.5301Z" fill="#2C893A"/>
<path d="M78.0769 43.1148H76.1767L77.9649 39.112C77.9996 39.0125 78.012 38.9066 78.0014 38.8017C77.9908 38.6969 77.9574 38.5956 77.9035 38.5051C77.8555 38.4042 77.778 38.3203 77.6812 38.2645C77.5845 38.2086 77.473 38.1836 77.3616 38.1926H72.8188C72.6034 38.1739 72.3872 38.2192 72.1974 38.3226C71.9841 38.4476 71.8212 38.6431 71.7368 38.8754L70.7198 41.117C70.6813 41.2076 70.6647 41.306 70.6713 41.4042C70.6779 41.5024 70.7075 41.5977 70.7578 41.6824C70.8093 41.7696 70.882 41.8425 70.9691 41.8943C71.0562 41.9461 71.155 41.9751 71.2563 41.9786H75.4686L74.9574 43.1148H70.5808C70.4093 43.1079 70.2416 43.1659 70.1111 43.2773C69.9919 43.3903 69.9062 43.5341 69.8636 43.6928C69.8432 43.7662 69.8399 43.8433 69.854 43.9181C69.8681 43.993 69.8992 44.0636 69.9449 44.1245C69.9965 44.1788 70.0592 44.2215 70.1287 44.2495C70.1982 44.2775 70.2729 44.2904 70.3477 44.2871H73.3805L72.2353 50.0347C72.2159 50.1904 72.1393 50.3334 72.0204 50.4357C71.948 50.5001 71.8553 50.5372 71.7585 50.5405C71.4702 50.5087 71.1842 50.4586 70.9023 50.3906C70.7255 50.3491 70.5406 50.3591 70.3694 50.4195C70.2878 50.4488 70.2129 50.4944 70.1493 50.5533C70.0857 50.6123 70.0346 50.6835 69.9991 50.7627C69.926 50.9124 69.9069 51.0828 69.9449 51.245C70.0407 51.5719 70.7831 51.7363 71.903 51.7869C72.1375 51.7998 72.371 51.7466 72.5767 51.6333C73.0518 51.366 73.2902 50.9108 73.4221 50.3472L74.0832 47.0056C74.5059 48.6692 75.1327 49.9751 75.9383 50.9415C75.9894 51.0135 76.0567 51.0725 76.1349 51.1136C76.213 51.1547 76.2997 51.1768 76.388 51.1781C76.5724 51.1692 76.749 51.1015 76.892 50.9849C77.0371 50.8728 77.1423 50.717 77.1918 50.5405C77.206 50.4498 77.1992 50.3571 77.1719 50.2694C77.1447 50.1817 77.0977 50.1015 77.0347 50.0347C76.2838 49.1044 75.6929 48.0557 75.2862 46.9315C75.0068 46.0753 74.857 45.1821 74.8418 44.2816H77.8439C77.928 44.2832 78.0115 44.2681 78.0897 44.2371C78.1678 44.206 78.239 44.1598 78.2991 44.101C78.4199 43.9882 78.5063 43.8436 78.5484 43.6838C78.5683 43.6106 78.5713 43.5339 78.5572 43.4594C78.5431 43.385 78.5123 43.3147 78.4671 43.2539C78.4167 43.2028 78.3555 43.1638 78.2879 43.1397C78.2204 43.1157 78.1482 43.1071 78.0769 43.1148ZM72.2967 40.8641C72.2806 40.8639 72.2647 40.8605 72.2499 40.8541C72.2351 40.8477 72.2217 40.8384 72.2104 40.8269C72.1992 40.8153 72.1903 40.8016 72.1844 40.7866C72.1784 40.7716 72.1755 40.7556 72.1757 40.7395C72.1889 40.6545 72.2138 40.5719 72.2498 40.4938L72.5785 39.7514C72.6163 39.6358 72.6778 39.5293 72.7592 39.4389C72.8644 39.3535 72.9957 39.3063 73.1313 39.3053H76.3375C76.386 39.3111 76.4317 39.3314 76.4684 39.3637C76.5052 39.3959 76.5313 39.4385 76.5434 39.4859C76.5486 39.5898 76.5228 39.6929 76.4693 39.7821L75.9672 40.8659L72.2967 40.8641Z" fill="#2C893A"/>
<path d="M71.3304 47.0724C71.4859 47.0908 71.6432 47.0599 71.7802 46.9839C71.9416 46.8905 72.0683 46.7472 72.1414 46.5757C72.2191 46.3264 72.0132 45.8929 71.3575 44.9193C71.3189 44.8478 71.2614 44.7883 71.1913 44.7472C71.1213 44.7062 71.0413 44.6851 70.9601 44.6863C70.7979 44.681 70.64 44.7386 70.5193 44.847C70.3892 44.9541 70.2999 45.1027 70.2665 45.2679C70.2456 45.3479 70.2437 45.4318 70.2609 45.5127C70.2782 45.5936 70.3141 45.6693 70.3658 45.7339C70.6386 46.1783 70.8102 46.3408 71.007 46.7545C71.0338 46.8282 71.0767 46.8951 71.1327 46.9501C71.1886 47.0051 71.2562 47.0469 71.3304 47.0724Z" fill="#2C893A"/>
<path d="M78.0173 44.8199C77.951 44.776 77.8755 44.7477 77.7967 44.7374C77.7178 44.7271 77.6376 44.7349 77.5622 44.7603C77.3785 44.8183 77.2211 44.9392 77.1178 45.1017C76.8013 45.4998 76.4521 45.8708 76.0738 46.2108C75.9292 46.3408 75.8272 46.5114 75.7811 46.7003C75.7713 46.7728 75.778 46.8465 75.8009 46.916C75.8237 46.9855 75.8621 47.0488 75.913 47.1013C75.9712 47.1647 76.0436 47.2133 76.1244 47.2432C76.2051 47.273 76.2918 47.2832 76.3772 47.2729C76.8848 47.1681 77.228 46.7744 78.0607 45.6653C78.1226 45.5974 78.1704 45.5179 78.2015 45.4314C78.2325 45.3449 78.246 45.2531 78.2413 45.1613C78.2371 45.0898 78.2142 45.0207 78.1749 44.9608C78.1356 44.9009 78.0813 44.8523 78.0173 44.8199Z" fill="#2C893A"/>
<path d="M107.285 42.1267C107.328 42.2051 107.389 42.2727 107.462 42.3243C107.535 42.3759 107.619 42.4103 107.708 42.4248C107.883 42.4412 108.058 42.3931 108.201 42.2893C108.358 42.1939 108.477 42.0471 108.539 41.8738C108.583 41.6994 108.561 41.5145 108.477 41.3554C108.186 40.8511 107.858 40.3682 107.498 39.9104C107.093 39.3673 106.806 38.9964 106.635 38.7977C106.578 38.728 106.506 38.6727 106.424 38.6366C106.342 38.6005 106.253 38.5845 106.163 38.59C105.984 38.6111 105.816 38.6886 105.684 38.8113C105.551 38.934 105.461 39.0956 105.426 39.2728C105.414 39.3607 105.425 39.4503 105.456 39.5333C105.488 39.6163 105.539 39.69 105.607 39.7478C106.26 40.4703 106.824 41.269 107.285 42.1267Z" fill="#2C893A"/>
<path d="M104.043 42.9287C104.036 43.0154 104.049 43.1025 104.083 43.1826C104.117 43.2628 104.169 43.3337 104.236 43.3893C104.863 44.0407 105.422 44.7542 105.905 45.519C105.949 45.6003 106.012 45.6698 106.088 45.7217C106.164 45.7736 106.252 45.8063 106.344 45.817C106.434 45.8243 106.524 45.8135 106.61 45.7852C106.695 45.757 106.774 45.7119 106.842 45.6526C106.995 45.5546 107.108 45.4044 107.159 45.23C107.211 45.015 106.978 44.5562 106.465 43.8644C105.863 43.1214 105.458 42.6361 105.249 42.4085C105.186 42.3432 105.11 42.2922 105.025 42.2588C104.941 42.2255 104.85 42.2106 104.76 42.2152C104.582 42.242 104.416 42.3234 104.286 42.4482C104.148 42.572 104.061 42.7436 104.043 42.9287Z" fill="#2C893A"/>
<path d="M102.319 47.2187C102.486 47.2468 102.657 47.2154 102.804 47.1302C102.967 47.049 103.095 46.9118 103.165 46.7436C103.201 46.662 103.22 46.5737 103.22 46.4844C103.22 46.3951 103.201 46.3069 103.165 46.2252C102.699 45.3931 102.121 44.4129 101.431 43.2846C101.442 43.225 101.451 43.1762 101.46 43.1364H103.205C103.391 43.1378 103.572 43.0688 103.71 42.9432C103.849 42.8241 103.945 42.662 103.981 42.4826C104.002 42.4018 104.005 42.3175 103.99 42.2354C103.975 42.1534 103.943 42.0756 103.895 42.0075C103.775 41.9018 103.621 41.8439 103.461 41.8449H101.714L102.186 39.4696C102.757 39.3703 103.318 39.2475 103.869 39.0975C104.073 39.0491 104.254 38.934 104.384 38.7706C104.443 38.7017 104.486 38.6211 104.511 38.5343C104.536 38.4474 104.543 38.3562 104.53 38.2666C104.536 38.1872 104.517 38.108 104.478 38.0391C104.438 37.9702 104.378 37.9148 104.306 37.8801C104.13 37.8098 103.936 37.7996 103.754 37.8512C102.642 38.1474 101.169 38.3654 99.3354 38.5051C99.1283 38.5082 98.9284 38.5814 98.7682 38.7128C98.6234 38.8357 98.5299 39.0084 98.5063 39.1969C98.4896 39.2786 98.4932 39.3632 98.5168 39.4432C98.5405 39.5232 98.5834 39.5961 98.6418 39.6557C98.7093 39.7195 98.7911 39.7663 98.8802 39.7924C98.9694 39.8185 99.0635 39.823 99.1548 39.8056C99.734 39.7659 100.295 39.7213 100.836 39.6719C100.692 40.3945 100.548 41.1218 100.405 41.854H98.3419C98.1542 41.8535 97.9719 41.9173 97.8253 42.0346C97.6855 42.1523 97.5899 42.3141 97.5544 42.4934C97.5333 42.5741 97.5301 42.6585 97.545 42.7405C97.56 42.8226 97.5928 42.9004 97.6411 42.9685C97.6965 43.0309 97.7656 43.0797 97.843 43.111C97.9204 43.1424 98.004 43.1554 98.0873 43.1491H100.013C99.0846 44.6398 97.9782 46.0119 96.7181 47.235C96.5642 47.3779 96.4635 47.569 96.4327 47.7768C96.4325 47.8548 96.4485 47.932 96.4796 48.0035C96.5107 48.075 96.5562 48.1392 96.6133 48.1923C96.6741 48.2476 96.7466 48.2884 96.8255 48.3116C96.9044 48.3347 96.9875 48.3397 97.0685 48.326C97.4153 48.2959 98.2378 47.4343 99.5359 45.7411C99.5785 45.6737 99.6262 45.6097 99.6786 45.5497C99.3029 47.4499 98.9248 49.3598 98.5443 51.2793C98.5201 51.3666 98.5146 51.458 98.528 51.5476C98.5414 51.6372 98.5734 51.723 98.6219 51.7995C98.6763 51.8593 98.7431 51.9065 98.8177 51.9378C98.8923 51.969 98.9728 51.9834 99.0536 51.9801C99.2467 51.9724 99.4314 51.8988 99.577 51.7717C99.7225 51.6445 99.8202 51.4714 99.8538 51.2811C100.262 49.2231 100.67 47.1645 101.077 45.1053C101.402 45.6786 101.697 46.2682 101.962 46.8719C101.985 46.9563 102.031 47.033 102.093 47.094C102.156 47.155 102.234 47.198 102.319 47.2187Z" fill="#2C893A"/>
<path d="M110.726 37.6724C110.538 37.6716 110.356 37.7354 110.209 37.853C110.078 37.9828 109.988 38.1479 109.949 38.3281C109.384 41.1784 108.819 44.0342 108.253 46.8954L102.433 47.7118C102.223 47.7422 102.026 47.8354 101.87 47.9792C101.748 48.1191 101.68 48.2977 101.678 48.4831C101.672 48.564 101.685 48.6451 101.717 48.7198C101.748 48.7945 101.797 48.8607 101.859 48.913C101.933 48.9615 102.017 48.9944 102.104 49.0099C102.192 49.0254 102.282 49.0232 102.368 49.0033L107.986 48.2158C107.787 49.2249 107.585 50.2443 107.381 51.2739C107.356 51.3611 107.35 51.4526 107.364 51.5423C107.377 51.632 107.409 51.7178 107.458 51.7941C107.512 51.8545 107.579 51.9021 107.654 51.9334C107.728 51.9647 107.809 51.9788 107.89 51.9747C108.075 51.9675 108.252 51.8996 108.394 51.7814C108.549 51.6532 108.654 51.474 108.69 51.2757C108.903 50.1919 109.118 49.1081 109.333 48.0243L110.296 47.8762C110.507 47.8446 110.703 47.7516 110.861 47.6089C110.977 47.4776 111.041 47.3088 111.042 47.1338C111.05 47.0536 111.039 46.9727 111.009 46.8979C110.979 46.8231 110.931 46.7565 110.87 46.7039C110.797 46.6497 110.713 46.6112 110.624 46.5907C110.534 46.5702 110.442 46.5681 110.352 46.5847L109.592 46.7039L111.25 38.3299C111.27 38.2471 111.27 38.1606 111.25 38.0778C111.23 37.995 111.189 37.9185 111.132 37.8548C111.083 37.7953 111.021 37.7479 110.95 37.7162C110.88 37.6846 110.803 37.6696 110.726 37.6724Z" fill="#2C893A"/>
<path d="M118.703 44.9626C118.744 44.8008 118.736 44.6302 118.679 44.4731C118.646 44.4029 118.597 44.341 118.536 44.2923C118.475 44.2435 118.405 44.209 118.329 44.1913C118.139 44.1825 117.951 44.2289 117.787 44.325C117.606 44.4424 117.366 44.5761 117.077 44.7242L117.619 41.9479H118.641C118.828 41.9499 119.008 41.8816 119.147 41.7564C119.287 41.6378 119.382 41.4755 119.418 41.2958C119.439 41.2151 119.442 41.1308 119.427 41.0487C119.412 40.9666 119.379 40.8889 119.331 40.8208C119.212 40.7144 119.058 40.6559 118.898 40.6564H117.874L118.336 38.3262C118.361 38.2348 118.367 38.1389 118.351 38.0453C118.335 37.9516 118.299 37.8626 118.246 37.7844C118.192 37.7239 118.125 37.6763 118.05 37.645C117.976 37.6138 117.895 37.5997 117.814 37.6037C117.629 37.6113 117.452 37.6792 117.31 37.797C117.16 37.9336 117.06 38.1169 117.026 38.3172L116.566 40.6474H115.225C115.038 40.6469 114.855 40.7107 114.709 40.828C114.569 40.946 114.473 41.1086 114.438 41.2886C114.417 41.3693 114.414 41.4537 114.429 41.5357C114.444 41.6178 114.476 41.6956 114.525 41.7637C114.58 41.8261 114.649 41.8749 114.727 41.9062C114.804 41.9376 114.888 41.9506 114.971 41.9443H116.309L115.625 45.4052C115.023 45.646 114.435 45.8537 113.862 46.0283C113.679 46.0753 113.518 46.1853 113.408 46.339C113.312 46.4942 113.275 46.6791 113.305 46.8593C113.318 46.9386 113.349 47.0137 113.396 47.0785C113.444 47.1432 113.506 47.1956 113.578 47.2314C113.659 47.2655 113.746 47.2831 113.834 47.2831C113.922 47.2831 114.008 47.2655 114.089 47.2314C114.512 47.0724 114.933 46.9189 115.354 46.7707L114.745 49.9209C114.721 50.0853 114.644 50.2372 114.525 50.3527C114.404 50.4418 114.118 50.4418 113.667 50.3527C113.482 50.2885 113.28 50.2973 113.102 50.3772C112.924 50.4572 112.784 50.6022 112.709 50.7826C112.669 50.8568 112.644 50.939 112.638 51.0234C112.632 51.1078 112.644 51.1926 112.673 51.2721C112.777 51.5129 113.133 51.6664 113.741 51.7327C114.313 51.7724 114.747 51.7182 115.036 51.5701C115.28 51.4343 115.492 51.247 115.656 51.0211C115.82 50.7953 115.934 50.5364 115.988 50.2623L116.793 46.1945C117.982 45.6502 118.618 45.2396 118.703 44.9626Z" fill="#2C893A"/>
<path d="M128.581 39.4552C128.525 39.3989 128.457 39.3552 128.382 39.3268C128.307 39.2985 128.228 39.2863 128.148 39.2908H124.597C124.662 38.9633 124.725 38.6418 124.788 38.3262C124.811 38.2436 124.812 38.1566 124.791 38.0735C124.771 37.9903 124.729 37.9138 124.671 37.8512C124.561 37.7391 124.412 37.6743 124.255 37.6706C124.161 37.6633 124.066 37.6756 123.977 37.7066C123.888 37.7377 123.806 37.7869 123.737 37.8512C123.616 37.9722 123.464 38.4491 123.287 39.2962H120.202C120.014 39.2958 119.832 39.3595 119.685 39.4769C119.545 39.5949 119.449 39.7575 119.414 39.9375C119.393 40.0182 119.39 40.1025 119.405 40.1846C119.42 40.2667 119.453 40.3444 119.501 40.4125C119.556 40.475 119.626 40.5238 119.703 40.5551C119.78 40.5864 119.864 40.5995 119.947 40.5932H123.031C122.91 41.2278 122.78 41.8859 122.64 42.5675H120.038C119.853 42.5659 119.672 42.6235 119.523 42.7318C119.378 42.853 119.281 43.0212 119.248 43.2069C119.229 43.2856 119.227 43.3676 119.243 43.4471C119.258 43.5266 119.291 43.6018 119.338 43.6675C119.391 43.7336 119.458 43.7858 119.536 43.8195C119.613 43.8532 119.697 43.8674 119.781 43.8608H125.222C125.411 43.8608 125.525 43.9005 125.559 43.9782C125.596 44.0986 125.289 44.5839 124.64 45.4341C123.975 46.2634 123.222 47.0186 122.395 47.6865C121.613 46.8005 120.973 45.7987 120.498 44.717C120.46 44.6329 120.403 44.5593 120.331 44.5023C120.258 44.4454 120.173 44.4068 120.083 44.39C119.903 44.3806 119.725 44.4273 119.573 44.5237C119.414 44.618 119.295 44.766 119.236 44.941C119.202 45.0288 119.188 45.1232 119.196 45.2171C119.204 45.3109 119.233 45.4018 119.281 45.4828C119.873 46.5385 120.568 47.5332 121.356 48.4524L120.345 49.0304C119.192 49.6057 117.99 50.0778 116.754 50.4412C116.558 50.479 116.386 50.591 116.271 50.7537C116.171 50.9158 116.123 51.1051 116.134 51.2955C116.134 51.3775 116.156 51.4579 116.197 51.5284C116.239 51.599 116.299 51.657 116.371 51.6965C116.452 51.7427 116.543 51.7704 116.637 51.7779C116.73 51.7854 116.825 51.7724 116.913 51.7399C118.218 51.3572 119.483 50.8466 120.688 50.2154C121.208 49.9179 121.711 49.606 122.198 49.2797C123.419 50.4093 124.574 51.2113 125.664 51.6857C125.856 51.7561 126.067 51.7611 126.262 51.7002C126.453 51.6211 126.616 51.4865 126.73 51.3136C126.834 51.1534 126.872 50.9593 126.836 50.7717C126.817 50.6737 126.771 50.5831 126.703 50.5097C126.635 50.4364 126.548 50.3833 126.452 50.3563C125.304 49.8774 124.23 49.2376 123.262 48.456C124.661 47.1965 125.895 45.7647 126.934 44.1949C127.319 43.6007 127.411 43.3695 127.411 43.2304C127.412 43.1424 127.396 43.0551 127.363 42.9735C127.33 42.8919 127.281 42.8177 127.219 42.7553C127.067 42.6209 126.87 42.5498 126.667 42.5566H123.957C124.09 41.8943 124.22 41.2362 124.347 40.5823H127.899C128.086 40.5846 128.266 40.5155 128.404 40.3891C128.544 40.2714 128.64 40.1095 128.675 39.9303C128.698 39.8492 128.701 39.7641 128.684 39.6816C128.668 39.5992 128.633 39.5217 128.581 39.4552Z" fill="#2C893A"/>
<path d="M94.1928 38.2522H83.644C83.5213 38.2475 83.399 38.2675 83.2842 38.3109C83.1694 38.3543 83.0645 38.4204 82.9757 38.5051C82.7915 38.6643 82.6604 38.8761 82.6 39.112L81.6318 44.0089C81.5718 44.2551 81.6121 44.5149 81.7438 44.7314C81.8037 44.8245 81.8865 44.9007 81.9841 44.9529C82.0818 45.0051 82.1912 45.0314 82.3019 45.0295H85.3022C83.8462 46.3288 82.1371 47.3128 80.2825 47.9196C80.0942 47.976 79.9318 48.0969 79.8237 48.2609C79.7207 48.4215 79.6833 48.6155 79.7189 48.8028C79.7257 48.8812 79.7509 48.9568 79.7923 49.0236C79.8337 49.0904 79.8902 49.1466 79.9573 49.1876C80.4643 49.367 81.7889 48.8179 83.9312 47.5402L84.4966 47.132C84.1582 48.4639 83.3153 49.482 81.9677 50.1865C81.8183 50.2727 81.6625 50.3476 81.5017 50.4104C81.2863 50.4785 81.1056 50.6274 80.9978 50.8259C80.9139 50.9798 80.8889 51.1589 80.9273 51.3299C80.9427 51.4137 80.9808 51.4918 81.0375 51.5555C81.0942 51.6192 81.1673 51.6661 81.2488 51.6911C81.6264 51.8067 82.3001 51.5213 83.2701 50.8295C84.6001 49.8552 85.5293 48.4296 85.8838 46.8195L86.0645 45.9164C86.4799 45.5551 86.796 45.248 87.0092 45.0277H88.223C88.2511 45.0598 88.2764 45.0943 88.2989 45.1306C88.6082 45.5776 88.9512 46.0003 89.3248 46.395C89.0045 48.0063 88.6824 49.6319 88.3585 51.2721C88.3323 51.3591 88.3257 51.4509 88.3392 51.5408C88.3526 51.6308 88.3857 51.7166 88.4361 51.7923C88.4873 51.856 88.5536 51.906 88.629 51.9375C88.7044 51.9691 88.7865 51.9812 88.8678 51.9729C89.0528 51.9672 89.2304 51.8991 89.3718 51.7796C89.5277 51.6518 89.6328 51.4724 89.668 51.2739C89.9209 49.9986 90.1744 48.7185 90.4285 47.4337L90.5477 47.5438C91.3071 48.1514 92.1338 48.6696 93.0115 49.0882C93.1025 49.1381 93.2032 49.1678 93.3066 49.1753C93.4101 49.1827 93.514 49.1678 93.6112 49.1316C93.8037 49.0579 93.9702 48.9291 94.0899 48.7613C94.1929 48.6002 94.241 48.4101 94.2272 48.2194C94.2078 48.1232 94.1646 48.0334 94.1015 47.9583C94.0383 47.8832 93.9573 47.8251 93.8659 47.7895C92.3966 47.1673 91.0856 46.2236 90.0293 45.0277H92.8526C93.1306 45.0069 93.3947 44.8974 93.6058 44.7152C93.8445 44.5434 94.0122 44.2903 94.0772 44.0035L95.0454 39.1066C95.064 39.0026 95.0599 38.8958 95.0334 38.7936C95.0069 38.6913 94.9586 38.596 94.8919 38.5141C94.8043 38.4184 94.6953 38.3447 94.5738 38.2992C94.4523 38.2537 94.3218 38.2376 94.1928 38.2522ZM83.7361 39.9899C83.7524 39.8413 83.8224 39.7038 83.933 39.6033C84.0488 39.5196 84.1895 39.4776 84.3322 39.4841H88.1254L87.8997 40.6275L87.822 41.0249H83.5302L83.7361 39.9899ZM83.1346 43.6675C83.103 43.6135 83.0824 43.5538 83.0741 43.4918C83.0657 43.4297 83.0697 43.3667 83.0858 43.3062L83.2936 42.255H87.5817L87.2783 43.7976H83.485C83.4206 43.8037 83.3556 43.7951 83.295 43.7726C83.2343 43.7501 83.1795 43.7142 83.1346 43.6675ZM92.7369 43.6675C92.6174 43.7601 92.469 43.8074 92.3179 43.8012H88.5824L88.8859 42.2586H93.1145L92.9067 43.3099C92.8929 43.4462 92.8307 43.573 92.7315 43.6675H92.7369ZM93.5679 39.9899L93.3637 41.0249H89.1279L89.2074 40.6275L89.4314 39.4841H93.1651C93.2303 39.4713 93.2979 39.4768 93.3602 39.5C93.4226 39.5232 93.4773 39.5631 93.5184 39.6154C93.5595 39.6678 93.5854 39.7304 93.5931 39.7965C93.6009 39.8625 93.5903 39.9294 93.5624 39.9899H93.5679Z" fill="#2C893A"/>
<path d="M73.5142 16.2423C73.5142 16.2423 73.8954 14.1615 73.7075 10.8993C73.498 7.28123 70.2466 0.289009 60.3752 0.0108375C46.2534 -0.388357 33.8585 10.2851 32.959 28.1784C32.5743 35.8028 38.0799 42.3742 50.2237 41.9985C61.2205 41.6607 68.5541 35.111 71.1769 25.4545H59.0746C59.0746 25.4545 57.2972 31.7766 51.6055 32.0547C46.9832 32.2841 46.1685 29.5584 46.0999 26.6521C46.0168 22.6963 48.6594 9.3928 57.6549 9.93469C62.3711 10.2219 61.1555 16.2387 61.1555 16.2387L73.5142 16.2423Z" fill="#00498F"/>
<path d="M28.1723 30.8879H15.5877L17.0797 25.3082H28.4197C28.8489 22.1934 29.6833 19.1481 30.9016 16.2495H19.5002L20.835 11.2497H33.6941C36.3525 7.18055 40.0257 3.87469 44.3514 1.65819C44.433 1.62548 44.4999 1.56413 44.5395 1.48564C44.5791 1.40715 44.5887 1.3169 44.5666 1.23182C44.5444 1.14673 44.492 1.07265 44.4191 1.02345C44.3462 0.974252 44.2579 0.953317 44.1707 0.964569H12.2713C11.5695 0.964294 10.8872 1.19547 10.3301 1.62228C9.77299 2.0491 9.37218 2.64772 9.18977 3.32541L0.154618 37.1377C0.0279567 37.6105 0.011792 38.1061 0.107375 38.5861C0.202959 39.0662 0.407727 39.5178 0.705827 39.906C1.00393 40.2942 1.38737 40.6086 1.82646 40.8249C2.26555 41.0411 2.74852 41.1534 3.23799 41.1531H33.1775C33.2444 41.1515 33.309 41.129 33.3623 41.0888C33.4157 41.0486 33.4551 40.9926 33.4751 40.9289C33.495 40.8651 33.4944 40.7966 33.4735 40.7332C33.4525 40.6697 33.4122 40.6145 33.3582 40.5751C30.1177 38.1619 28.4179 34.7082 28.1723 30.8879Z" fill="#00498F"/>
<path d="M106.909 18.9409C103.32 20.4474 100.815 22.8877 99.9044 26.5618C98.9199 30.5356 101.21 34.029 106.925 34.1248C110.307 34.1808 114.097 33.041 116.04 31.4912L116.316 31.2762L115.811 34.1501H124.176C124.241 32.7231 124.246 30.859 125.039 27.9147C125.856 24.8873 127.465 19.5605 127.653 18.9409H106.909ZM118.399 23.7024C118.235 24.2677 118.02 24.8172 117.758 25.3443C116.674 27.492 114.698 28.5433 111.542 28.7438C108.67 28.9244 107.749 27.2987 108.136 25.8934C108.963 22.9094 113.132 21.9448 118.75 21.9448C118.67 22.5375 118.553 23.1245 118.399 23.7024Z" fill="#2C893A"/>
<path d="M76.7421 18.9409L76.6518 19.2805L72.7393 34.1157H81.229L83.9276 23.8848C84.7302 23.9981 85.5381 24.0699 86.348 24.0998C91.2052 24.1792 95.6921 22.8588 99.1837 20.2668C99.5961 19.961 99.9905 19.6317 100.365 19.2805C100.484 19.1703 100.602 19.0566 100.717 18.9409H76.7421Z" fill="#2C893A"/>
<path d="M147.036 18.9409L143.808 25.8808C143.017 27.4469 142.927 27.7106 142.217 29.1683H142.002L140.814 18.9409H132.505L135.642 34.4011C135.732 34.8478 135.72 35.3087 135.61 35.7505C135.424 36.2719 135.16 36.7621 134.828 37.2045C133.924 38.4238 133.29 39.3233 130.989 40.8533L129.331 50.4466C131.235 49.7712 133.032 48.8265 134.669 47.6414C138.337 44.9951 141.971 40.837 148.528 30.3008L153.875 21.6486L155.551 18.9391L147.036 18.9409Z" fill="#2C893A"/>
<path d="M86.0247 16.2459L88.512 6.82243C89.1478 6.65986 89.9787 6.55329 91.599 6.55329C95.7535 6.55329 97.5507 8.55106 96.6675 11.8982C96.2171 13.6774 95.123 15.2266 93.5967 16.2459H102.937C103.816 14.8119 104.478 13.2554 104.901 11.6272C105.842 8.06517 105.126 5.04141 103.235 3.2062C101.302 1.26442 97.9463 0.289009 92.8652 0.289009C87.8454 0.289009 84.1949 0.614145 81.5432 1.04585L77.4375 16.2459H86.0247Z" fill="#2C893A"/>
<path d="M106.998 15.5704C107.635 14.8262 109.559 13.9447 111.584 13.3703C113.03 12.9597 114.521 12.7316 116.024 12.6911C120.648 12.6442 120.706 14.6889 120.321 16.1484L120.296 16.2459H127.967C128.715 11.0257 126.703 7.02293 118.977 7.02293C115.444 7.02104 111.947 7.73376 108.696 9.11824L106.998 15.5704Z" fill="#2C893A"/>
<path d="M140.371 16.2459L139.524 7.67139H130.422L132.075 16.2459H140.371Z" fill="#2C893A"/>
<path fill-rule="evenodd" clip-rule="evenodd" d="M143.451 17.9384H76.9932L76.6319 19.3022H164.332C164.639 19.302 164.941 19.213 165.199 19.0457C165.457 18.8784 165.662 18.6401 165.788 18.3593L169.534 10.0015H147.007L143.451 17.9384Z" fill="#F08300"/>
<path fill-rule="evenodd" clip-rule="evenodd" d="M170.054 5.73864H149.952C149.644 5.73851 149.342 5.82768 149.084 5.99535C148.826 6.16301 148.621 6.40199 148.496 6.68334L147.876 8.06517H170.401L170.876 7.00667C170.937 6.86952 170.962 6.71944 170.95 6.56998C170.938 6.42052 170.889 6.27638 170.808 6.15056C170.726 6.02475 170.615 5.92121 170.483 5.8493C170.352 5.77738 170.204 5.73935 170.054 5.73864Z" fill="#F08300"/>
</g>
<defs>
<clipPath id="clip0_272_1856">
<rect width="171" height="52" fill="white" transform="translate(0.5)"/>
</clipPath>
</defs>
</svg>
