<svg  viewBox="0 0 64 64" fill="none" xmlns="http://www.w3.org/2000/svg">
<path d="M10.6663 53.3337C9.19967 53.3337 7.94412 52.8114 6.89967 51.767C5.85523 50.7225 5.33301 49.467 5.33301 48.0003V16.0003C5.33301 14.5337 5.85523 13.2781 6.89967 12.2337C7.94412 11.1892 9.19967 10.667 10.6663 10.667H53.333C54.7997 10.667 56.0552 11.1892 57.0997 12.2337C58.1441 13.2781 58.6663 14.5337 58.6663 16.0003V48.0003C58.6663 49.467 58.1441 50.7225 57.0997 51.767C56.0552 52.8114 54.7997 53.3337 53.333 53.3337H10.6663ZM31.9997 34.667L10.6663 21.3337V48.0003H53.333V21.3337L31.9997 34.667ZM31.9997 29.3337L53.333 16.0003H10.6663L31.9997 29.3337ZM10.6663 21.3337V16.0003V48.0003V21.3337Z" fill="#C800F2"/>
</svg>
