<svg  viewBox="0 0 16 16" fill="none" xmlns="http://www.w3.org/2000/svg">
<path d="M7.99646 11.2C8.16547 11.2 8.30831 11.1428 8.42498 11.0285C8.54164 10.9142 8.59998 10.7725 8.59998 10.6035C8.59998 10.4345 8.54281 10.2916 8.42849 10.175C8.31416 10.0583 8.17249 9.99998 8.00349 9.99998C7.83448 9.99998 7.69164 10.0571 7.57498 10.1715C7.45831 10.2858 7.39998 10.4275 7.39998 10.5965C7.39998 10.7655 7.45714 10.9083 7.57146 11.025C7.68579 11.1416 7.82746 11.2 7.99646 11.2ZM7.39998 8.79998H8.59998V4.79998H7.39998V8.79998ZM8.00458 14.4C7.12373 14.4 6.29442 14.2333 5.51664 13.9C4.73886 13.5666 4.05831 13.1083 3.47498 12.525C2.89164 11.9416 2.43331 11.2613 2.09998 10.484C1.76664 9.70669 1.59998 8.87613 1.59998 7.99234C1.59998 7.10854 1.76664 6.28053 2.09998 5.50831C2.43331 4.73609 2.89164 4.05831 3.47498 3.47498C4.05831 2.89164 4.73863 2.43331 5.51594 2.09998C6.29326 1.76664 7.12382 1.59998 8.00761 1.59998C8.89141 1.59998 9.71942 1.76664 10.4916 2.09998C11.2639 2.43331 11.9416 2.89164 12.525 3.47498C13.1083 4.05831 13.5666 4.73733 13.9 5.51204C14.2333 6.28676 14.4 7.11454 14.4 7.99538C14.4 8.87622 14.2333 9.70553 13.9 10.4833C13.5666 11.2611 13.1083 11.9416 12.525 12.525C11.9416 13.1083 11.2626 13.5666 10.4879 13.9C9.71319 14.2333 8.88541 14.4 8.00458 14.4ZM7.99998 13.2C9.44442 13.2 10.6722 12.6944 11.6833 11.6833C12.6944 10.6722 13.2 9.44442 13.2 7.99998C13.2 6.55553 12.6944 5.32775 11.6833 4.31664C10.6722 3.30553 9.44442 2.79998 7.99998 2.79998C6.55553 2.79998 5.32775 3.30553 4.31664 4.31664C3.30553 5.32775 2.79998 6.55553 2.79998 7.99998C2.79998 9.44442 3.30553 10.6722 4.31664 11.6833C5.32775 12.6944 6.55553 13.2 7.99998 13.2Z" fill="#DE82FF"/>
</svg>
