<svg viewBox="0 0 28 23" fill="none" xmlns="http://www.w3.org/2000/svg">
<path d="M10.2667 16.8333L14.0001 14.0333L17.6667 16.8333L16.2667 12.3L20.0001 9.36668H15.4667L14.0001 4.83334L12.5334 9.36668H8.00008L11.6667 12.3L10.2667 16.8333ZM3.33341 22.1667C2.60008 22.1667 1.9723 21.9056 1.45008 21.3833C0.927859 20.8611 0.666748 20.2333 0.666748 19.5V15C0.666748 14.7556 0.744526 14.5445 0.900081 14.3667C1.05564 14.1889 1.25564 14.0778 1.50008 14.0333C2.03341 13.8556 2.4723 13.5333 2.81675 13.0667C3.16119 12.6 3.33341 12.0778 3.33341 11.5C3.33341 10.9222 3.16119 10.4 2.81675 9.93334C2.4723 9.46668 2.03341 9.14445 1.50008 8.96668C1.25564 8.92223 1.05564 8.81112 0.900081 8.63334C0.744526 8.45557 0.666748 8.24445 0.666748 8.00001V3.50001C0.666748 2.76668 0.927859 2.1389 1.45008 1.61668C1.9723 1.09445 2.60008 0.833344 3.33341 0.833344H24.6667C25.4001 0.833344 26.0279 1.09445 26.5501 1.61668C27.0723 2.1389 27.3334 2.76668 27.3334 3.50001V8.00001C27.3334 8.24445 27.2556 8.45557 27.1001 8.63334C26.9445 8.81112 26.7445 8.92223 26.5001 8.96668C25.9667 9.14445 25.5279 9.46668 25.1834 9.93334C24.839 10.4 24.6667 10.9222 24.6667 11.5C24.6667 12.0778 24.839 12.6 25.1834 13.0667C25.5279 13.5333 25.9667 13.8556 26.5001 14.0333C26.7445 14.0778 26.9445 14.1889 27.1001 14.3667C27.2556 14.5445 27.3334 14.7556 27.3334 15V19.5C27.3334 20.2333 27.0723 20.8611 26.5501 21.3833C26.0279 21.9056 25.4001 22.1667 24.6667 22.1667H3.33341ZM3.33341 19.5H24.6667V16.1C23.8445 15.6111 23.1945 14.9611 22.7167 14.15C22.239 13.3389 22.0001 12.4556 22.0001 11.5C22.0001 10.5445 22.239 9.66112 22.7167 8.85001C23.1945 8.0389 23.8445 7.3889 24.6667 6.90001V3.50001H3.33341V6.90001C4.15564 7.3889 4.80564 8.0389 5.28341 8.85001C5.76119 9.66112 6.00008 10.5445 6.00008 11.5C6.00008 12.4556 5.76119 13.3389 5.28341 14.15C4.80564 14.9611 4.15564 15.6111 3.33341 16.1V19.5Z" fill="#C800F2"/>
</svg>
