<svg xmlns="http://www.w3.org/2000/svg" xmlns:xlink="http://www.w3.org/1999/xlink" width="500" zoomAndPan="magnify" viewBox="0 0 375 374.999991" height="500" preserveAspectRatio="xMidYMid meet" version="1.0"><defs><clipPath id="40408094cf"><path d="M 64.050781 61.207031 L 310.800781 61.207031 L 310.800781 313.386719 L 64.050781 313.386719 Z M 64.050781 61.207031 " clip-rule="nonzero"/></clipPath></defs><rect x="-37.5" width="450" fill="#ffffff" y="-37.499999" height="449.999989" fill-opacity="1"/><rect x="-37.5" width="450" fill="#ffffff" y="-37.499999" height="449.999989" fill-opacity="1"/><g clip-path="url(#40408094cf)"><path fill="#bb0d0d" d="M 310.121094 291.011719 C 304.007812 244.351562 294.839844 200.140625 272.753906 159.589844 C 266.003906 147.175781 255.882812 136.609375 247.796875 124.894531 C 246.300781 122.730469 244.742188 120.375 243.46875 117.988281 C 248.117188 113.945312 252.859375 109.585938 257.441406 105.003906 C 262.34375 100.101562 267.054688 94.976562 271.289062 90.042969 C 275.554688 85.140625 279.339844 80.367188 282.429688 76.101562 C 288.667969 67.667969 292.007812 61.207031 292.007812 61.207031 C 292.007812 61.207031 285.578125 64.582031 277.144531 70.820312 C 272.878906 73.90625 268.105469 77.695312 263.171875 81.960938 C 258.238281 86.191406 253.144531 90.871094 248.242188 95.773438 C 245.316406 98.699219 242.515625 101.691406 239.777344 104.683594 C 235.003906 82.308594 216.734375 64.421875 193.910156 61.589844 C 169.945312 58.660156 144.101562 72.730469 138.339844 96.535156 C 137.574219 99.785156 136.589844 102.839844 135.539062 105.832031 C 132.480469 102.457031 129.332031 99.082031 126.054688 95.773438 C 121.152344 90.871094 116.027344 86.191406 111.09375 81.960938 C 106.191406 77.695312 101.417969 73.90625 97.121094 70.820312 C 88.6875 64.546875 82.257812 61.207031 82.257812 61.207031 C 82.257812 61.207031 85.628906 67.636719 91.867188 76.070312 C 94.957031 80.335938 98.742188 85.109375 103.007812 90.042969 C 107.242188 94.976562 111.921875 100.101562 116.824219 104.972656 C 121.277344 109.425781 125.863281 113.660156 130.382812 117.609375 C 126.117188 125.628906 120.707031 132.886719 114.148438 139.761719 C 112.238281 141.765625 110.742188 144.183594 109.246094 146.539062 C 80.570312 192.40625 70.128906 243.808594 64.082031 296.484375 C 63.796875 298.839844 65.960938 303.488281 67.519531 303.742188 C 86.742188 306.894531 106.03125 309.664062 125.320312 312.464844 C 132.449219 313.484375 138.5625 313.671875 138.976562 312.910156 C 139.390625 312.113281 133.789062 309.824219 128.597656 304.855469 C 120.800781 297.34375 119.335938 286.394531 118.542969 275.035156 C 117.808594 264.242188 117.492188 253.292969 115.261719 242.789062 C 113.320312 233.6875 117.046875 230.632812 124.714844 229.613281 C 142 227.289062 159.347656 225.347656 176.566406 222.675781 C 179.269531 222.261719 181.914062 221.339844 184.585938 220.289062 C 188.882812 218.535156 193.5625 222.261719 198.65625 223.503906 C 201.582031 224.234375 205.050781 223.789062 207.917969 222.515625 C 210.8125 221.210938 213.042969 218.441406 215.300781 215.164062 C 218.644531 210.355469 220.011719 212.933594 223.640625 219.171875 C 227.171875 225.1875 234.367188 227.066406 243.152344 228.308594 C 261.769531 230.949219 261.613281 231.96875 259.605469 251.257812 C 259.257812 254.375 259.542969 257.589844 258.9375 260.679688 C 255.914062 275.957031 259.449219 293.941406 246.90625 305.335938 C 241.558594 310.171875 236.210938 312.367188 236.816406 312.910156 C 237.390625 313.417969 243.660156 313.070312 250.789062 312.113281 C 266.671875 309.980469 282.621094 307.847656 298.820312 305.652344 C 305.949219 304.699219 311.042969 298.140625 310.121094 291.011719 Z M 168.578125 83.742188 C 161.828125 88.546875 155.144531 90.710938 153.617188 88.609375 C 152.121094 86.480469 156.355469 80.84375 163.101562 76.039062 C 169.847656 71.234375 176.535156 69.070312 178.0625 71.167969 C 179.589844 73.300781 175.324219 78.902344 168.578125 83.742188 Z M 168.578125 83.742188 " fill-opacity="1" fill-rule="nonzero"/></g><path fill="#bb0d0d" d="M 238.726562 264.019531 C 238.601562 262.84375 233.125 262.652344 226.503906 263.605469 C 219.882812 264.5625 214.695312 266.503906 214.949219 267.96875 C 215.207031 269.429688 220.679688 269.589844 227.171875 268.347656 C 233.667969 267.109375 238.824219 265.167969 238.726562 264.019531 Z M 238.726562 264.019531 " fill-opacity="1" fill-rule="nonzero"/><path fill="#bb0d0d" d="M 148.585938 263.671875 C 142.414062 262.714844 137.289062 262.90625 137.128906 264.148438 C 136.9375 265.390625 141.746094 267.363281 147.855469 268.507812 C 153.933594 269.71875 159.089844 269.496094 159.3125 268.0625 C 159.570312 266.597656 154.761719 264.65625 148.585938 263.671875 Z M 148.585938 263.671875 " fill-opacity="1" fill-rule="nonzero"/><path fill="#bb0d0d" d="M 194.613281 292.539062 C 193.65625 292.347656 192.542969 292.222656 191.398438 291.902344 C 190.792969 291.742188 190.21875 291.550781 189.710938 291.488281 C 189.234375 291.457031 188.660156 291.140625 188.214844 291.074219 C 187.261719 290.980469 186.402344 290.660156 185.542969 290.789062 C 184.714844 290.660156 183.855469 290.980469 182.898438 291.105469 C 182.453125 291.171875 181.816406 291.425781 181.46875 291.519531 C 180.925781 291.710938 180.417969 291.902344 179.9375 292.0625 C 178.824219 292.476562 177.359375 292.253906 176.4375 292.507812 C 175.484375 292.667969 174.847656 292.859375 174.847656 292.859375 C 174.847656 292.859375 174.78125 293.527344 174.816406 294.511719 C 174.972656 295.5 174.71875 296.773438 175.609375 298.140625 C 176.023438 298.839844 176.566406 299.636719 177.296875 300.371094 C 178.03125 301.195312 178.761719 301.609375 179.621094 302.152344 C 180.480469 302.628906 181.402344 303.171875 182.421875 303.359375 C 183.441406 303.617188 184.492188 303.710938 185.542969 303.839844 C 186.589844 303.710938 187.671875 303.617188 188.691406 303.359375 C 189.710938 303.234375 190.632812 302.628906 191.492188 302.152344 C 193.242188 301.261719 194.453125 299.699219 195.25 298.332031 C 196.109375 297.027344 196.234375 295.4375 196.332031 294.480469 C 196.363281 293.492188 196.265625 292.890625 196.265625 292.890625 C 196.265625 292.890625 195.664062 292.761719 194.613281 292.539062 Z M 194.613281 292.539062 " fill-opacity="1" fill-rule="nonzero"/></svg>