<svg width="240" height="24" viewBox="0 0 240 24" fill="none" xmlns="http://www.w3.org/2000/svg">
<path d="M156.305 4.46201V0.000488281L123.779 0.000488281V4.46201L156.305 4.46201Z" fill="#4C2451"/>
<path d="M154.727 13.8948V9.35107L123.778 9.35107V13.8948L154.727 13.8948Z" fill="#4C2451"/>
<path d="M156.312 23.7871V19.2434L123.787 19.2434V23.7871H156.312Z" fill="#4C2451"/>
<path d="M110.879 0.000488281V9.663H86.6335V0.000488281H82.1836V23.787H86.6335V14.1245H110.879V23.787H115.329V0.000488281H110.879Z" fill="#4C2451"/>
<path d="M240 4.46202V0.000488281L207.474 0.000488281V4.46202L240 4.46202Z" fill="#4C2451"/>
<path d="M238.422 13.8948V9.35107L207.473 9.35107V13.8948L238.422 13.8948Z" fill="#4C2451"/>
<path d="M240 23.7871V19.2434L207.474 19.2434V23.7871H240Z" fill="#4C2451"/>
<path d="M25.0662 23.7868H0V19.3006H25.0662C26.5227 19.3006 28.2528 18.8569 28.2528 16.7207C28.2528 14.5844 26.5227 14.1407 25.0662 14.1407H7.64459C3.10612 14.1325 0.0643755 11.2978 0.0643755 7.06637C0.0643755 2.83491 3.10612 0.000244141 7.64459 0.000244141H32.3085V4.48641H7.64459C6.18809 4.48641 4.458 4.9301 4.458 7.06637C4.458 9.20264 6.18809 9.64632 7.64459 9.64632H25.0743C29.6127 9.64632 32.6545 12.4892 32.6545 16.7124C32.6545 20.9357 29.6047 23.7786 25.0743 23.7786L25.0662 23.7868Z" fill="#4C2451"/>
<path d="M66.1797 0.000488281H41.1055V4.47022H66.1797C67.6282 4.47022 69.3583 4.91391 69.3583 7.04196C69.3583 9.17001 67.6282 9.6137 66.1797 9.6137H41.1055V23.787H45.5554V14.0752H66.1878C70.7021 14.0752 73.7358 11.2488 73.7358 7.04196C73.7358 2.83515 70.6941 0.000488281 66.1797 0.000488281Z" fill="#4C2451"/>
<path d="M193.626 23.7874H199.026L192.218 13.8701C195.598 13.1471 197.762 10.5918 197.762 7.04229C197.762 2.83548 194.729 0.0090332 190.214 0.0090332H164.762V4.47877H190.214C191.663 4.47877 193.393 4.92245 193.393 7.05051C193.393 9.17856 191.663 9.62225 190.214 9.62225H164.762V23.7956H169.212V14.0838H187.253L193.634 23.7956L193.626 23.7874Z" fill="#4C2451"/>
</svg>
