<svg viewBox="0 0 180 29" fill="none" xmlns="http://www.w3.org/2000/svg">
<g clip-path="url(#clip0_844_243)">
<path d="M117.174 3.32619V-0.000427246L92.9218 -0.000427246V3.32619L117.174 3.32619Z" fill="#FAF0FD"/>
<path d="M115.998 10.3595V6.97162L92.9218 6.97162V10.3595L115.998 10.3595Z" fill="#FAF0FD"/>
<path d="M117.18 17.7355V14.3476L92.9278 14.3476V17.7355H117.18Z" fill="#FAF0FD"/>
<path d="M83.094 -0.000366211V7.20423H65.016V-0.000366211H61.698V17.7354H65.016V10.5308H83.094V17.7354H86.412V-0.000366211H83.094Z" fill="#FAF0FD"/>
<path d="M180 3.3262V-0.000427246L155.748 -0.000427246V3.3262L180 3.3262Z" fill="#FAF0FD"/>
<path d="M178.824 10.3595V6.97162L155.748 6.97162V10.3595L178.824 10.3595Z" fill="#FAF0FD"/>
<path d="M180 17.7355V14.3476L155.748 14.3476V17.7355H180Z" fill="#FAF0FD"/>
<path d="M18.69 17.7354H0V14.3904H18.69C19.776 14.3904 21.066 14.0596 21.066 12.4667C21.066 10.8739 19.776 10.543 18.69 10.543H5.7C2.316 10.5369 0.048 8.42331 0.048 5.26824C0.048 2.11317 2.316 -0.000427246 5.7 -0.000427246H24.09V3.34456H5.7C4.614 3.34456 3.324 3.67539 3.324 5.26824C3.324 6.86109 4.614 7.19192 5.7 7.19192H18.696C22.08 7.19192 24.348 9.31164 24.348 12.4606C24.348 15.6095 22.074 17.7292 18.696 17.7292L18.69 17.7354Z" fill="#FAF0FD"/>
<path d="M49.56 -0.000366211H30.864V3.33237H49.56C50.64 3.33237 51.93 3.66319 51.93 5.24992C51.93 6.83665 50.64 7.16747 49.56 7.16747H30.864V17.7354H34.182V10.4941H49.566C52.932 10.4941 55.194 8.38662 55.194 5.24992C55.194 2.11323 52.926 -0.000366211 49.56 -0.000366211Z" fill="#FAF0FD"/>
<path d="M145.212 17.7357H149.238L144.162 10.3412C146.682 9.80206 148.296 7.89676 148.296 5.25017C148.296 2.11348 146.034 0.00601196 142.668 0.00601196H123.69V3.33875H142.668C143.748 3.33875 145.038 3.66957 145.038 5.2563C145.038 6.84303 143.748 7.17385 142.668 7.17385H123.69V17.7418H127.008V10.5005H140.46L145.218 17.7418L145.212 17.7357Z" fill="#FAF0FD"/>
<path d="M20.5441 28.3835C20.4421 28.6408 20.3581 28.8001 20.1121 28.8001C19.8661 28.8001 19.7761 28.6408 19.6741 28.3835L18.6181 25.694C18.5941 25.645 18.5581 25.5776 18.5281 25.5776C18.4861 25.5776 18.4621 25.6266 18.4621 25.6818L18.4741 28.7572H18.0001V25.498C18.0001 25.2346 18.1741 25.0875 18.4501 25.0875C18.7561 25.0875 18.8641 25.2652 18.9601 25.5041L20.0221 28.1875C20.0461 28.2548 20.0701 28.31 20.1121 28.31C20.1541 28.31 20.1781 28.2548 20.2021 28.1875L21.2641 25.5041C21.3541 25.2652 21.4621 25.0875 21.7681 25.0875C22.0501 25.0875 22.2241 25.2346 22.2241 25.498V28.7572H21.7501L21.7621 25.6818C21.7621 25.5899 21.7141 25.5776 21.6961 25.5776C21.6601 25.5776 21.6241 25.6389 21.6061 25.694L20.5441 28.3835Z" fill="#FAF0FD"/>
<path d="M26.0157 25.4856C26.1237 25.2283 26.2317 25.0874 26.5017 25.0874C26.7717 25.0874 26.8917 25.2406 26.9937 25.4856L28.3377 28.7571H27.8397L27.4377 27.7707H25.5537L25.1577 28.7571H24.6597L26.0097 25.4856H26.0157ZM25.6977 27.3787H27.2997L26.6277 25.7123C26.5977 25.6388 26.5617 25.5346 26.5017 25.5346C26.4417 25.5346 26.4117 25.6388 26.3817 25.7123L25.7037 27.3787H25.6977Z" fill="#FAF0FD"/>
<path d="M30.7803 25.1242H31.2543V28.751H30.7803V25.1242ZM33.3303 28.751L31.6923 27.3542C31.4883 27.1827 31.4463 27.0295 31.4463 26.8825C31.4463 26.7661 31.5123 26.619 31.6623 26.4842L33.1683 25.1181H33.7803L32.1063 26.619C32.0163 26.7048 31.9083 26.7661 31.9083 26.8825C31.9083 27.0111 32.0343 27.1153 32.1483 27.2072L33.9723 28.7449H33.3303V28.751Z" fill="#FAF0FD"/>
<path d="M36.882 28.7571C36.576 28.7571 36.384 28.6101 36.384 28.2425V25.6388C36.384 25.2529 36.57 25.1242 36.882 25.1242H39.084V25.5163H37.092C36.894 25.5163 36.858 25.5776 36.858 25.7613V26.6987H39.03V27.0908H36.858V28.1077C36.858 28.2915 36.894 28.3589 37.092 28.3589H39.102V28.751H36.882V28.7571Z" fill="#FAF0FD"/>
<path d="M47.6641 25.1242H48.1801L46.6921 27.5993V28.751H46.2181V27.5993L44.7301 25.1242H45.2461L46.4521 27.1643L47.6581 25.1242H47.6641Z" fill="#FAF0FD"/>
<path d="M53.9643 26.9437C53.9643 28.3344 53.5023 28.8 52.1943 28.8C50.8863 28.8 50.4243 28.3344 50.4243 26.9437C50.4243 25.553 50.8983 25.0874 52.1943 25.0874C53.4903 25.0874 53.9643 25.553 53.9643 26.9437ZM52.1943 28.4079C53.2023 28.4079 53.4723 28.0464 53.4723 26.9437C53.4723 25.8409 53.2023 25.4795 52.1943 25.4795C51.1863 25.4795 50.9163 25.8471 50.9163 26.9437C50.9163 28.0403 51.1863 28.4079 52.1943 28.4079Z" fill="#FAF0FD"/>
<path d="M59.1119 27.4829V25.1242H59.5859V27.5319C59.5859 28.4876 59.0219 28.8 58.1339 28.8C57.2459 28.8 56.6819 28.4937 56.6819 27.5319V25.1242H57.1559V27.4829C57.1559 28.1568 57.4259 28.4018 58.1339 28.4018C58.8419 28.4018 59.1119 28.1568 59.1119 27.4829Z" fill="#FAF0FD"/>
<path d="M62.406 25.6756C62.406 25.2896 62.592 25.1242 62.928 25.1242H64.572C65.226 25.1242 65.436 25.5469 65.436 26.2208C65.436 26.8947 65.244 27.3787 64.626 27.3787H64.05V27.4032L65.508 28.751H64.878L63.516 27.4767C63.45 27.4155 63.384 27.3358 63.384 27.2501V27.1643C63.384 27.054 63.462 26.9805 63.6 26.9805H64.47C64.902 26.9805 64.944 26.6558 64.944 26.2208C64.944 25.7859 64.872 25.5163 64.398 25.5163H63.132C62.97 25.5163 62.88 25.5653 62.88 25.7675V28.751H62.406V25.6695V25.6756Z" fill="#FAF0FD"/>
<path d="M74.5557 27.7647C74.5557 28.2977 74.4117 28.7571 73.7817 28.7571H72.0537C71.7657 28.7571 71.5497 28.6591 71.5497 28.2548V25.6388C71.5497 25.3019 71.7117 25.1242 72.0177 25.1242H73.7457C74.2857 25.1242 74.5077 25.4795 74.5077 26.1106C74.5077 26.5088 74.4057 26.8457 74.0217 26.907V26.9254C74.4057 26.9744 74.5557 27.2317 74.5557 27.7647ZM72.0237 26.7293H73.5297C73.9257 26.7293 74.0097 26.5455 74.0097 26.1044C74.0097 25.7491 73.9257 25.5163 73.5597 25.5163H72.2457C72.0777 25.5163 72.0177 25.5653 72.0177 25.7491V26.7232L72.0237 26.7293ZM72.0237 28.0955C72.0237 28.2977 72.0537 28.365 72.2577 28.365H73.5477C73.9437 28.365 74.0637 28.1813 74.0637 27.7463C74.0637 27.3726 73.9677 27.1275 73.5897 27.1275H72.0237V28.0955Z" fill="#FAF0FD"/>
<path d="M79.7277 27.4829V25.1242H80.2017V27.5319C80.2017 28.4876 79.6377 28.8 78.7497 28.8C77.8617 28.8 77.2977 28.4937 77.2977 27.5319V25.1242H77.7717V27.4829C77.7717 28.1568 78.0417 28.4018 78.7497 28.4018C79.4577 28.4018 79.7277 28.1568 79.7277 27.4829Z" fill="#FAF0FD"/>
<path d="M82.9439 28.3589H84.9299C85.1999 28.3589 85.3079 28.169 85.3079 27.8504C85.3079 27.6605 85.2659 27.4645 84.9119 27.3481L83.5079 26.8702C83.0819 26.7232 82.9019 26.4781 82.9019 25.9758C82.9019 25.4734 83.1479 25.1242 83.7119 25.1242H85.6379V25.5163H83.8019C83.5319 25.5163 83.3999 25.6449 83.3999 25.9819C83.3999 26.1779 83.4179 26.3679 83.7359 26.4781L85.0739 26.9315C85.5479 27.0908 85.8119 27.2746 85.8119 27.8443C85.8119 28.3344 85.6259 28.7449 85.0739 28.7449H82.9559V28.3528L82.9439 28.3589Z" fill="#FAF0FD"/>
<path d="M88.4946 28.7571V25.1302H88.9685V28.7571H88.4946Z" fill="#FAF0FD"/>
<path d="M94.9917 28.3405C94.9917 28.6468 94.8177 28.8 94.5657 28.8C94.3737 28.8 94.2357 28.7387 94.0977 28.512L92.4237 25.7736C92.3877 25.7123 92.3577 25.6878 92.3217 25.6878C92.3037 25.6878 92.2497 25.7062 92.2497 25.7919V28.7571H91.7877V25.5162C91.7877 25.1854 92.0277 25.0874 92.2257 25.0874C92.4837 25.0874 92.5977 25.2099 92.6817 25.3508L94.3737 28.1077C94.3977 28.1506 94.4217 28.1935 94.4697 28.1935C94.5297 28.1935 94.5297 28.1383 94.5297 28.1077V25.1242H94.9917V28.3405Z" fill="#FAF0FD"/>
<path d="M98.3101 28.7571C98.0041 28.7571 97.8121 28.6101 97.8121 28.2425V25.6388C97.8121 25.2529 97.9981 25.1242 98.3101 25.1242H100.512V25.5163H98.5201C98.3221 25.5163 98.2861 25.5776 98.2861 25.7613V26.6987H100.458V27.0908H98.2861V28.1077C98.2861 28.2915 98.3221 28.3589 98.5201 28.3589H100.53V28.751H98.3101V28.7571Z" fill="#FAF0FD"/>
<path d="M103.122 28.3589H105.108C105.378 28.3589 105.486 28.169 105.486 27.8504C105.486 27.6605 105.444 27.4645 105.09 27.3481L103.686 26.8702C103.26 26.7232 103.08 26.4781 103.08 25.9758C103.08 25.4734 103.326 25.1242 103.89 25.1242H105.816V25.5163H103.98C103.71 25.5163 103.578 25.6449 103.578 25.9819C103.578 26.1779 103.596 26.3679 103.914 26.4781L105.252 26.9315C105.726 27.0908 105.99 27.2746 105.99 27.8443C105.99 28.3344 105.804 28.7449 105.252 28.7449H103.134V28.3528L103.122 28.3589Z" fill="#FAF0FD"/>
<path d="M108.492 28.3589H110.478C110.748 28.3589 110.856 28.169 110.856 27.8504C110.856 27.6605 110.814 27.4645 110.46 27.3481L109.056 26.8702C108.63 26.7232 108.45 26.4781 108.45 25.9758C108.45 25.4734 108.696 25.1242 109.26 25.1242H111.186V25.5163H109.35C109.08 25.5163 108.948 25.6449 108.948 25.9819C108.948 26.1779 108.966 26.3679 109.284 26.4781L110.622 26.9315C111.096 27.0908 111.36 27.2746 111.36 27.8443C111.36 28.3344 111.174 28.7449 110.622 28.7449H108.504V28.3528L108.492 28.3589Z" fill="#FAF0FD"/>
<path d="M119.814 27.4829V25.1242H120.288V27.5319C120.288 28.4876 119.724 28.8 118.836 28.8C117.948 28.8 117.384 28.4937 117.384 27.5319V25.1242H117.858V27.4829C117.858 28.1568 118.128 28.4018 118.836 28.4018C119.544 28.4018 119.814 28.1568 119.814 27.4829Z" fill="#FAF0FD"/>
<path d="M126.312 28.3405C126.312 28.6468 126.138 28.8 125.886 28.8C125.694 28.8 125.556 28.7387 125.418 28.512L123.744 25.7736C123.708 25.7123 123.678 25.6878 123.642 25.6878C123.624 25.6878 123.57 25.7062 123.57 25.7919V28.7571H123.108V25.5162C123.108 25.1854 123.348 25.0874 123.546 25.0874C123.804 25.0874 123.918 25.2099 124.002 25.3508L125.694 28.1077C125.718 28.1506 125.742 28.1935 125.79 28.1935C125.85 28.1935 125.85 28.1383 125.85 28.1077V25.1242H126.312V28.3405Z" fill="#FAF0FD"/>
<path d="M129.583 28.7571C129.325 28.7571 129.133 28.6529 129.133 28.3221V25.1302H129.607V28.1505C129.607 28.3098 129.655 28.3711 129.829 28.3711H131.797V28.7632H129.583V28.7571Z" fill="#FAF0FD"/>
<path d="M134.286 28.7571V25.1302H134.76V28.7571H134.286Z" fill="#FAF0FD"/>
<path d="M140.123 28.3834C140.021 28.6407 139.937 28.8 139.691 28.8C139.445 28.8 139.355 28.6407 139.253 28.3834L138.197 25.6939C138.173 25.6449 138.143 25.5775 138.107 25.5775C138.065 25.5775 138.041 25.6265 138.041 25.6817L138.053 28.7571H137.579V25.4979C137.579 25.2344 137.753 25.0874 138.029 25.0874C138.335 25.0874 138.443 25.2651 138.539 25.504L139.601 28.1873C139.625 28.2547 139.649 28.3099 139.691 28.3099C139.733 28.3099 139.757 28.2547 139.781 28.1873L140.843 25.504C140.933 25.2651 141.041 25.0874 141.347 25.0874C141.629 25.0874 141.803 25.2344 141.803 25.4979V28.7571H141.329L141.341 25.6817C141.341 25.5898 141.293 25.5775 141.275 25.5775C141.239 25.5775 141.203 25.6388 141.185 25.6939L140.123 28.3834Z" fill="#FAF0FD"/>
<path d="M144.624 28.7571V25.1302H145.098V28.7571H144.624Z" fill="#FAF0FD"/>
<path d="M149.027 28.7571V25.5223H147.587V25.1302H150.935V25.5223H149.495V28.7571H149.021H149.027Z" fill="#FAF0FD"/>
<path d="M153.924 28.7571C153.618 28.7571 153.426 28.6101 153.426 28.2425V25.6388C153.426 25.2529 153.612 25.1242 153.924 25.1242H156.126V25.5163H154.134C153.936 25.5163 153.9 25.5776 153.9 25.7613V26.6987H156.072V27.0908H153.9V28.1077C153.9 28.2915 153.936 28.3589 154.134 28.3589H156.144V28.751H153.924V28.7571Z" fill="#FAF0FD"/>
<path d="M159.306 28.7571C159 28.7571 158.808 28.6346 158.808 28.2425V25.6388C158.808 25.2529 158.994 25.1242 159.306 25.1242H160.602C161.742 25.1242 162 25.988 162 26.9254C162 27.8627 161.766 28.7571 160.674 28.7571H159.306ZM159.516 25.5224C159.33 25.5224 159.282 25.5959 159.282 25.7675V28.1139C159.282 28.3038 159.324 28.365 159.516 28.365H160.488C161.376 28.365 161.508 27.7095 161.508 26.9315C161.508 26.1534 161.352 25.5285 160.464 25.5285H159.516V25.5224Z" fill="#FAF0FD"/>
</g>
<defs>
<clipPath id="clip0_844_243">
<rect width="180" height="28.8" fill="white"/>
</clipPath>
</defs>
</svg>
