<svg width="24" height="22" viewBox="0 0 24 22" fill="none" xmlns="http://www.w3.org/2000/svg">
<path d="M21.6041 1.1333L13.2799 7.31578L14.8193 3.6682L21.6041 1.1333Z" fill="#E2761B" stroke="#E2761B" stroke-width="0.888889" stroke-linecap="round" stroke-linejoin="round"/>
<path d="M2.3874 1.1333L10.6447 7.37435L9.18061 3.6682L2.3874 1.1333ZM18.6091 15.4643L16.3921 18.8609L21.1356 20.166L22.4993 15.5396L18.6091 15.4643ZM1.50897 15.5396L2.86427 20.166L7.6078 18.8609L5.3908 15.4643L1.50897 15.5396Z" fill="#E4761B" stroke="#E4761B" stroke-width="0.888889" stroke-linecap="round" stroke-linejoin="round"/>
<path d="M7.34019 9.72534L6.01836 11.7248L10.7284 11.934L10.5611 6.87253L7.34019 9.72534ZM16.6516 9.72534L13.3888 6.81396L13.2801 11.934L17.9818 11.7248L16.6516 9.72534ZM7.6079 18.861L10.4356 17.4806L7.99274 15.5732L7.6079 18.861ZM13.5561 17.4806L16.3922 18.861L15.999 15.5732L13.5561 17.4806Z" fill="#E4761B" stroke="#E4761B" stroke-width="0.888889" stroke-linecap="round" stroke-linejoin="round"/>
<path d="M16.3921 18.8609L13.556 17.4805L13.7819 19.3294L13.7568 20.1074L16.3921 18.8609ZM7.6078 18.8609L10.2431 20.1074L10.2264 19.3294L10.4355 17.4805L7.6078 18.8609Z" fill="#D7C1B3" stroke="#D7C1B3" stroke-width="0.888889" stroke-linecap="round" stroke-linejoin="round"/>
<path d="M10.2849 14.3517L7.92564 13.6573L9.59048 12.896L10.2849 14.3517ZM13.7066 14.3517L14.4009 12.896L16.0741 13.6573L13.7066 14.3517Z" fill="#233447" stroke="#233447" stroke-width="0.888889" stroke-linecap="round" stroke-linejoin="round"/>
<path d="M7.60788 18.8608L8.00945 15.4642L5.39088 15.5395L7.60788 18.8608ZM15.9906 15.4642L16.3922 18.8608L18.6092 15.5395L15.9906 15.4642ZM17.9817 11.7246L13.28 11.9338L13.7151 14.3515L14.4094 12.8959L16.0826 13.6572L17.9817 11.7246ZM7.92579 13.6572L9.59899 12.8959L10.285 14.3515L10.7284 11.9338L6.01834 11.7246L7.92579 13.6572Z" fill="#CD6116" stroke="#CD6116" stroke-width="0.888889" stroke-linecap="round" stroke-linejoin="round"/>
<path d="M6.01836 11.7246L7.99274 15.573L7.92581 13.6572L6.01836 11.7246ZM16.0827 13.6572L15.999 15.573L17.9818 11.7246L16.0827 13.6572ZM10.7284 11.9338L10.285 14.3515L10.8372 17.2043L10.9627 13.448L10.7284 11.9338ZM13.2801 11.9338L13.0542 13.4396L13.1546 17.2043L13.7151 14.3515L13.2801 11.9338Z" fill="#E4751F" stroke="#E4751F" stroke-width="0.888889" stroke-linecap="round" stroke-linejoin="round"/>
<path d="M13.7149 14.3516L13.1544 17.2044L13.556 17.4805L15.9988 15.573L16.0825 13.6572L13.7149 14.3516ZM7.92564 13.6572L7.99257 15.573L10.4354 17.4805L10.837 17.2044L10.2849 14.3516L7.92564 13.6572Z" fill="#F6851B" stroke="#F6851B" stroke-width="0.888889" stroke-linecap="round" stroke-linejoin="round"/>
<path d="M13.7568 20.1074L13.7819 19.3293L13.5728 19.1453H10.4188L10.2264 19.3293L10.2431 20.1074L7.6078 18.8608L8.52806 19.6138L10.3937 20.9105H13.5979L15.4719 19.6138L16.3921 18.8608L13.7568 20.1074Z" fill="#C0AD9E" stroke="#C0AD9E" stroke-width="0.888889" stroke-linecap="round" stroke-linejoin="round"/>
<path d="M13.556 17.4807L13.1544 17.2046H10.837L10.4355 17.4807L10.2263 19.3296L10.4187 19.1455H13.5727L13.7819 19.3296L13.556 17.4807Z" fill="#161616" stroke="#161616" stroke-width="0.888889" stroke-linecap="round" stroke-linejoin="round"/>
<path d="M21.9556 7.71735L22.6667 4.30402L21.6042 1.1333L13.5561 7.10663L16.6515 9.7252L21.0269 11.0052L21.9974 9.87578L21.5791 9.57461L22.2484 8.96389L21.7297 8.56232L22.399 8.05199L21.9556 7.71735ZM1.33333 4.30402L2.04444 7.71735L1.59267 8.05199L2.26196 8.56232L1.75163 8.96389L2.42091 9.57461L2.00261 9.87578L2.9647 11.0052L7.34013 9.7252L10.4356 7.10663L2.38745 1.1333L1.33333 4.30402Z" fill="#763D16" stroke="#763D16" stroke-width="0.888889" stroke-linecap="round" stroke-linejoin="round"/>
<path d="M21.0269 11.005L16.6515 9.72496L17.9817 11.7244L15.9989 15.5728L18.6091 15.5393H22.4993L21.0269 11.005ZM7.34008 9.72496L2.96466 11.005L1.50897 15.5393H5.3908L7.99263 15.5728L6.01825 11.7244L7.34008 9.72496ZM13.28 11.9336L13.556 7.1064L14.8277 3.66797H9.18061L10.4355 7.1064L10.7283 11.9336L10.8287 13.4562L10.8371 17.2042H13.1545L13.1712 13.4562L13.28 11.9336Z" fill="#F6851B" stroke="#F6851B" stroke-width="0.888889" stroke-linecap="round" stroke-linejoin="round"/>
</svg>
