<svg  viewBox="0 0 32 32" fill="none" xmlns="http://www.w3.org/2000/svg">
<path d="M25.604 6.1333L17.2798 12.3158L18.8191 8.6682L25.604 6.1333Z" fill="#E2761B" stroke="#E2761B" stroke-width="0.888889" stroke-linecap="round" stroke-linejoin="round"/>
<path d="M6.38722 6.1333L14.6445 12.3743L13.1804 8.6682L6.38722 6.1333ZM22.6089 20.4643L20.3919 23.8609L25.1355 25.166L26.4991 20.5396L22.6089 20.4643ZM5.50879 20.5396L6.86408 25.166L11.6076 23.8609L9.39062 20.4643L5.50879 20.5396Z" fill="#E4761B" stroke="#E4761B" stroke-width="0.888889" stroke-linecap="round" stroke-linejoin="round"/>
<path d="M11.3401 14.7252L10.0183 16.7247L14.7284 16.9338L14.5611 11.8724L11.3401 14.7252ZM20.6515 14.7252L17.3888 11.8138L17.28 16.9338L21.9817 16.7247L20.6515 14.7252ZM11.6079 23.8609L14.4356 22.4805L11.9927 20.5731L11.6079 23.8609ZM17.5561 22.4805L20.3922 23.8609L19.999 20.5731L17.5561 22.4805Z" fill="#E4761B" stroke="#E4761B" stroke-width="0.888889" stroke-linecap="round" stroke-linejoin="round"/>
<path d="M20.392 23.8609L17.5559 22.4805L17.7818 24.3294L17.7567 25.1074L20.392 23.8609ZM11.6077 23.8609L14.243 25.1074L14.2262 24.3294L14.4354 22.4805L11.6077 23.8609Z" fill="#D7C1B3" stroke="#D7C1B3" stroke-width="0.888889" stroke-linecap="round" stroke-linejoin="round"/>
<path d="M14.2848 19.3516L11.9255 18.6572L13.5904 17.8959L14.2848 19.3516ZM17.7065 19.3516L18.4008 17.8959L20.074 18.6572L17.7065 19.3516Z" fill="#233447" stroke="#233447" stroke-width="0.888889" stroke-linecap="round" stroke-linejoin="round"/>
<path d="M11.6079 23.8609L12.0094 20.4643L9.39087 20.5396L11.6079 23.8609ZM19.9906 20.4643L20.3922 23.8609L22.6092 20.5396L19.9906 20.4643ZM21.9817 16.7247L17.28 16.9339L17.7151 19.3517L18.4094 17.896L20.0826 18.6573L21.9817 16.7247ZM11.9258 18.6573L13.599 17.896L14.285 19.3517L14.7284 16.9339L10.0183 16.7247L11.9258 18.6573Z" fill="#CD6116" stroke="#CD6116" stroke-width="0.888889" stroke-linecap="round" stroke-linejoin="round"/>
<path d="M10.0183 16.7247L11.9927 20.5731L11.9258 18.6573L10.0183 16.7247ZM20.0826 18.6573L19.999 20.5731L21.9817 16.7247L20.0826 18.6573ZM14.7284 16.9339L14.285 19.3517L14.8371 22.2045L14.9626 18.4481L14.7284 16.9339ZM17.28 16.9339L17.0541 18.4398L17.1545 22.2045L17.715 19.3517L17.28 16.9339Z" fill="#E4751F" stroke="#E4751F" stroke-width="0.888889" stroke-linecap="round" stroke-linejoin="round"/>
<path d="M17.7148 19.3516L17.1543 22.2044L17.5559 22.4805L19.9987 20.573L20.0824 18.6572L17.7148 19.3516ZM11.9255 18.6572L11.9925 20.573L14.4353 22.4805L14.8369 22.2044L14.2848 19.3516L11.9255 18.6572Z" fill="#F6851B" stroke="#F6851B" stroke-width="0.888889" stroke-linecap="round" stroke-linejoin="round"/>
<path d="M17.7567 25.1075L17.7818 24.3295L17.5726 24.1454H14.4186L14.2262 24.3295L14.243 25.1075L11.6077 23.861L12.5279 24.6139L14.3935 25.9106H17.5977L19.4717 24.6139L20.392 23.861L17.7567 25.1075Z" fill="#C0AD9E" stroke="#C0AD9E" stroke-width="0.888889" stroke-linecap="round" stroke-linejoin="round"/>
<path d="M17.556 22.4805L17.1544 22.2045H14.837L14.4355 22.4805L14.2263 24.3294L14.4187 24.1454H17.5727L17.7819 24.3294L17.556 22.4805Z" fill="#161616" stroke="#161616" stroke-width="0.888889" stroke-linecap="round" stroke-linejoin="round"/>
<path d="M25.9555 12.7174L26.6666 9.30402L25.6041 6.1333L17.556 12.1066L20.6514 14.7252L25.0268 16.0052L25.9973 14.8758L25.579 14.5746L26.2483 13.9639L25.7296 13.5623L26.3989 13.052L25.9555 12.7174ZM5.33325 9.30402L6.04436 12.7174L5.5926 13.052L6.26188 13.5623L5.75155 13.9639L6.42083 14.5746L6.00253 14.8758L6.96462 16.0052L11.3401 14.7252L14.4355 12.1066L6.38737 6.1333L5.33325 9.30402Z" fill="#763D16" stroke="#763D16" stroke-width="0.888889" stroke-linecap="round" stroke-linejoin="round"/>
<path d="M25.0267 16.0052L20.6513 14.7252L21.9815 16.7247L19.9987 20.5731L22.6089 20.5396H26.4991L25.0267 16.0052ZM11.3399 14.7252L6.96448 16.0052L5.50879 20.5396H9.39062L11.9924 20.5731L10.0181 16.7247L11.3399 14.7252ZM17.2798 16.9338L17.5558 12.1066L18.8275 8.66821H13.1804L14.4353 12.1066L14.7281 16.9338L14.8285 18.4564L14.8369 22.2044H17.1543L17.171 18.4564L17.2798 16.9338Z" fill="#F6851B" stroke="#F6851B" stroke-width="0.888889" stroke-linecap="round" stroke-linejoin="round"/>
</svg>
