<svg  viewBox="0 0 84 83" fill="none" xmlns="http://www.w3.org/2000/svg">
<g clip-path="url(#clip0_186_59505)">
<path fill-rule="evenodd" clip-rule="evenodd" d="M41.8582 0C18.9582 0 0.392822 18.5654 0.392822 41.4653C0.392822 64.3652 18.9562 82.9286 41.8561 82.9286C64.756 82.9286 83.3193 64.3652 83.3193 41.4653C83.3193 18.5654 64.756 0 41.8582 0ZM41.8582 0.741454C19.3674 0.74353 1.13635 18.9746 1.13635 41.4653C1.13635 63.9561 19.3674 82.1871 41.8582 82.1871C64.3489 82.1871 82.5799 63.9561 82.5799 41.4653C82.5799 18.9746 64.3468 0.74353 41.8582 0.74353V0.741454ZM29.4507 22.686L31.9742 21.5188L32.5059 57.2456L35.9099 58.7888V64.0267L30.026 61.2603L29.4507 22.6839V22.686ZM42.7201 67.2293L42.1593 57.3598L40.0367 56.8946L39.5341 65.7318L36.9276 64.5065L38.9796 18.2954L41.4386 17.1635L45.1397 65.9727L42.7201 67.2314V67.2293ZM40.1696 50.7927H41.4968L40.6349 40.1112L40.1696 50.7927ZM22.0861 26.0796L24.6074 24.9187L25.0519 54.6266L28.5681 56.1241L28.5369 60.5645L22.5596 57.7545L22.0861 26.0817V26.0796ZM20.7423 56.8988L17.5023 28.1919L14.8439 29.4172L12.2166 52.8904L14.8792 54.1427L15.4067 49.8685L17.4109 50.6805L17.8616 55.5467L20.7423 56.9008V56.8988ZM15.7162 46.452L16.3974 40.1756L17.141 46.8258L15.7141 46.452H15.7162ZM7.62459 50.7325L7.67444 44.6658H9.75549C11.0785 44.6658 11.9882 44.1424 11.9383 42.753L11.5686 32.8503C11.5271 31.7288 10.7483 31.3051 9.61634 31.8264L4.75639 34.0653L4.89347 49.4489L7.62459 50.7325ZM7.44598 35.7352L7.42521 41.2742C8.24143 42.0115 9.28196 41.8579 9.25911 40.9959L9.11996 35.8556C9.09504 34.9272 8.39928 35.0124 7.44598 35.7352ZM46.7617 65.1254L45.9247 19.0763L49.2249 20.4845C51.6217 21.5084 53.0589 23.9051 53.1233 27.5812L53.6196 55.8479C53.6757 59.0234 52.9592 61.8958 50.7556 63.0422L46.7596 65.1212L46.7617 65.1254ZM48.8988 25.8429L49.4575 58.0245C50.3485 57.6735 50.7161 56.8884 50.6995 55.5384L50.388 29.0725C50.3651 27.1389 49.794 26.117 48.8968 25.8429H48.8988ZM55.3061 23.0806L58.1224 24.2831L58.6956 58.9134L55.9229 60.3568L55.3061 23.0806ZM60.5939 25.3361L63.2897 26.4867L63.7695 50.0097C63.8068 51.8249 63.5161 52.3898 64.6085 51.8831C65.1589 51.6276 65.5556 51.2517 65.5307 50.0097L65.0654 27.2448L67.5702 28.3123L68.0126 51.422C68.0458 53.1396 67.7384 54.203 66.4736 54.8613L63.5202 56.3982C61.9563 57.2124 61.1173 56.5769 61.0965 54.23L60.5918 25.3361H60.5939ZM79.1967 48.2402L78.9101 33.1515L76.8332 32.2647L74.6296 39.6563L72.507 30.4183L70.1476 29.411L70.6232 52.6993L73.1944 51.3597L73.076 44.1279L74.3243 48.8134L75.4188 48.479L76.5445 43.8849L76.6712 49.5507L79.1925 48.2381L79.1967 48.2402ZM15.2011 15.9008L16.3787 17.043L16.9935 16.4449L15.764 15.2673L15.2011 15.9008ZM12.0027 20.0317L11.3879 20.7358L16.8045 24.6923L18.1836 22.8002L17.5937 22.2831L16.5387 23.5666L12.0027 20.0338V20.0317ZM25.5171 16.1251L23.9947 17.1843C23.7434 17.3587 23.3384 17.2404 23.164 16.989L20.0112 12.4531C19.8368 12.2018 19.8991 11.8549 20.1504 11.6805L21.6728 10.6213C21.9241 10.4468 22.2709 10.5091 22.4454 10.7604L25.5981 15.2964C25.7726 15.5477 25.7684 15.9506 25.5171 16.1251ZM23.6811 16.4345L24.8774 15.5622L21.9594 11.3669L20.788 12.208L23.6811 16.4345ZM26.6054 7.90053L29.4715 13.9692L30.1569 13.6702L27.6065 8.32629L28.4081 7.93791C28.7093 7.79253 28.9544 7.83822 29.1101 8.09991L29.5608 8.86421C29.8848 9.41459 29.8308 9.84036 29.1101 10.343L31.2452 13.2361L31.9929 12.9661L30.2005 10.4302C30.5723 10.1644 30.7633 9.74066 30.4767 9.16536L29.6751 7.562C29.4237 7.05731 28.9315 6.79562 28.3479 7.07392L26.6075 7.90053H26.6054ZM34.0095 5.49963L34.7468 5.37294L36.0823 11.8695L35.3512 12.0211L34.0116 5.49963H34.0095ZM47.2664 4.93679L48.0556 5.09048L46.9839 11.749L46.1885 11.6244L47.2643 4.93679H47.2664ZM40.5372 5.35217H42.0139V6.33662H42.7512V5.28364C42.7512 4.85372 42.3981 4.50064 41.9682 4.50064H40.5829C40.153 4.50064 39.7999 4.85372 39.7999 5.28364V10.5444C39.7999 10.9743 40.153 11.3274 40.5829 11.3274H41.9682C42.3981 11.3274 42.7512 10.9743 42.7512 10.5444V8.37822C42.7512 7.9753 42.6079 7.83822 42.2278 7.83822H41.341V8.66068H42.0139V10.5735H40.5372V5.3501V5.35217ZM53.5511 13.666L55.9105 7.37507L55.0818 6.93893L53.7276 10.5777L53.7422 6.51731L53.0734 6.27016L50.6476 12.6172L51.4929 12.8892L52.9426 9.1529L52.8117 13.369L53.5532 13.6702L53.5511 13.666ZM59.3997 16.9413L61.8982 10.6026L61.1858 10.0356L56.3425 15.016L57.1047 15.448L58.2034 14.4282L59.2501 15.1551L58.6437 16.4137L59.3997 16.9392V16.9413ZM59.57 14.4594L60.6458 11.8113L58.6956 13.8779L59.5679 14.4594H59.57ZM63.6718 20.6548L64.3905 19.9196L63.2876 18.7856L67.3293 14.7294L66.7062 14.1063L61.8442 18.8936L63.6718 20.6548ZM67.0842 24.9498L67.8236 24.36L67.1257 23.3693L68.8869 21.9985L69.591 22.9975L70.2369 22.4908L69.537 21.4938L71.1445 20.2394L71.8507 21.2405L72.4281 20.7919L71.2754 19.1573L65.9336 23.3153L67.0863 24.9498H67.0842ZM20.329 71.4475L20.8939 70.6894L19.9655 69.9106L21.3155 68.1348L22.2522 68.9199L22.7465 68.2636L21.814 67.4785L23.0477 65.8544L23.9864 66.6394L24.4288 66.0579L22.896 64.7744L18.7983 70.1619L20.3311 71.4454L20.329 71.4475ZM38.7698 71.4537L39.5154 71.5118L39.2163 78.1372L38.4687 78.1039L38.7698 71.4537ZM53.4722 69.3602L54.1742 69.1047L56.6395 75.2607L55.9458 75.539L53.4701 69.3602H53.4722ZM18.6301 60.496L19.9032 61.9581C20.14 62.2302 19.9801 62.6227 19.7495 62.955L16.2936 66.1368C15.8408 66.5543 15.253 66.5335 14.9353 66.2137L13.7328 65.0049L18.6301 60.496ZM18.574 61.5635L14.8834 64.9613L15.6103 65.7505L16.1544 65.25L19.3092 62.3506L18.5761 61.5656L18.574 61.5635ZM25.1453 74.1786L24.435 73.7383L27.4507 67.869L29.1247 68.7267C29.5691 68.9552 29.6937 69.4599 29.457 69.9272L28.3915 72.0311C28.1818 72.4423 27.7331 72.65 27.324 72.4008L26.4143 71.8462L25.1495 74.1786H25.1453ZM27.9512 69.0092L28.7716 69.5139L27.648 71.5617L26.811 71.1068L27.9491 69.0092H27.9512ZM33.4488 76.999L31.644 76.5733C31.347 76.5026 31.1642 76.1226 31.2327 75.8256L32.5786 70.1037C32.861 70.1972 33.0916 70.2636 33.3782 70.3488L32.0656 75.7986L33.4384 76.1475L34.7032 70.7185C34.9483 70.7787 35.1934 70.8369 35.4405 70.8929L34.1175 76.5068C34.0469 76.8038 33.7437 77.0696 33.4467 77.0011L33.4488 76.999ZM44.8697 73.3354H45.5987V72.4548C45.5696 71.7486 45.1147 71.5243 44.3795 71.5222C43.5301 71.5202 43.15 71.894 43.123 72.7954C43.1022 73.4392 43.2268 73.8297 43.5134 74.1142L45.0462 75.647V77.5203H44.2424V76.2887H43.3618V77.458C43.3618 78.1122 43.9392 78.3158 44.6557 78.2867C45.3266 78.2618 45.8998 78.187 45.8998 77.5951V75.9232C45.8998 75.566 45.7295 75.2233 45.472 74.9678L43.9018 73.4101V72.4049H44.8572L44.8697 73.3354ZM62.7289 71.9044L61.2066 72.9636C60.9553 73.1381 60.5503 73.0197 60.3758 72.7684L59.6821 71.7715L60.3384 71.2855L60.9449 72.1578L62.0913 71.3436L60.8846 69.6073L59.7029 70.4277C59.2688 70.7289 58.8742 70.6063 58.5855 70.1909L57.2251 68.2345C57.0507 67.9832 57.113 67.6364 57.3643 67.4619L58.8867 66.4027C59.138 66.2282 59.4848 66.2905 59.6593 66.5418L62.812 71.0778C62.9865 71.3291 62.9823 71.732 62.731 71.9065L62.7289 71.9044ZM60.4111 68.9282L59.1712 67.1441L58.0081 67.9479L59.248 69.7299L60.4111 68.9261V68.9282ZM63.3478 62.7702L65.2108 66.8783L65.89 66.2137L64.8141 65.0589L65.431 64.4898L67.9752 67.3352L67.3583 67.8877L66.4092 66.8284L65.0031 68.1722L62.7767 63.3226L63.3458 62.7681L63.3478 62.7702ZM65.7259 60.0889L66.5857 61.0297L67.1548 60.4918L66.7436 60.066L67.2815 59.2914L71.2338 63.7339L71.7406 63.0547L67.2462 57.9767L65.7259 60.0889Z" fill="white"/>
</g>
<defs>
<clipPath id="clip0_186_59505">
<rect width="82.9286" height="82.9286" fill="white" transform="translate(0.392822)"/>
</clipPath>
</defs>
</svg>
