<svg  viewBox="0 0 148 23" fill="none" xmlns="http://www.w3.org/2000/svg">
<path d="M3.10299 22.4053H1.03323C0.86053 22.4053 0.428467 22.4053 0.428467 22.1519C0.428467 21.9841 0.515138 21.8985 0.773858 21.8136C2.67351 21.2213 3.10234 20.2077 3.10234 18.7728V3.63635C3.10234 2.28317 2.67028 1.26892 0.773858 0.595499C0.515138 0.595499 0.428467 0.426352 0.428467 0.342095C0.428467 0.00443457 0.86053 0.0886914 1.03323 0.0886914H18.1224C22.0064 0.0886914 25.2009 3.12954 25.2009 6.9363C25.2009 10.7431 22.0064 13.7801 18.1224 13.7801H9.4908V18.9375C9.57747 20.2901 10.0082 21.2181 11.8193 21.8117C12.078 21.8966 12.164 21.9815 12.164 22.15C12.164 22.4034 11.7326 22.4034 11.5599 22.4034H3.10299V22.4053ZM130.51 14.2046H134.567L130.51 7.44057L130.077 6.76398L126.455 14.2046H130.51ZM130.51 0.00190053H133.272L144.838 19.9575C145.184 20.4643 145.614 20.9711 146.131 21.2245C146.563 21.5634 147.08 21.6489 147.512 21.8168C147.685 21.9023 147.857 21.9872 147.857 22.1557C147.857 22.4091 147.426 22.4091 147.252 22.4091H136.981C136.809 22.4091 136.29 22.4091 136.29 22.1557C136.29 21.9872 136.463 21.9023 136.637 21.8168C137.154 21.6489 137.499 21.3949 137.672 20.8881C137.845 20.2951 137.672 19.9587 137.24 19.196C136.654 17.9758 136.051 16.7641 135.429 15.5609H125.762L125.676 15.7294C125.589 16.0683 124.9 17.2498 124.383 18.52C123.693 19.8726 123.434 20.2102 123.607 20.8868C123.694 21.3936 124.124 21.647 124.641 21.8162C124.815 21.9017 124.9 21.9866 124.9 22.1545C124.9 22.4079 124.467 22.4079 124.295 22.4079H119.547C119.375 22.4079 118.942 22.4079 118.942 22.1545C118.942 21.9866 119.03 21.9011 119.288 21.8162C119.721 21.6477 120.237 21.5628 120.669 21.2238C121.186 20.9704 121.619 20.4636 121.962 19.9568L122.567 18.6898L129.128 5.24293L128.177 3.63635C127.315 2.28317 126.451 1.43807 125.502 0.930626C125.07 0.677222 124.638 0.677222 124.208 0.508075C123.949 0.423185 123.862 0.338294 123.949 0.169147C123.949 0 124.121 0.0848903 124.208 0H130.51L130.51 0.00190053ZM104.702 22.3198H105.048C120.931 22.3198 120.759 0.0836233 105.048 0.0836233H92.0142C91.7555 0.0836233 91.3247 -0.00126697 91.3247 0.337027C91.3247 0.421284 91.4967 0.590431 91.6688 0.590431C93.5678 1.18213 93.9973 2.19701 94.0852 3.46593V18.9419C93.9999 20.2939 93.5678 21.2226 91.6688 21.8155C91.4967 21.9011 91.3247 21.986 91.3247 22.1545C91.3247 22.4079 91.7561 22.4079 92.0142 22.4079H100.387V22.3223H104.702V22.3198ZM104.702 1.69147C105.869 1.69597 106.986 2.15162 107.811 2.95919C108.636 3.76675 109.101 4.86083 109.107 6.00314V16.3179C109.102 17.4603 108.636 18.5545 107.811 19.3621C106.986 20.1697 105.869 20.6253 104.702 20.6296H100.384V1.69147H104.702ZM71.8133 14.2046H75.87L71.8133 7.44057L71.3812 6.76398L67.7591 14.2046H71.8133ZM71.8133 0.00190053H74.6592L86.226 19.9575C86.4847 20.4643 86.9167 20.9711 87.4348 21.2245C87.8656 21.5634 88.385 21.6489 88.9024 21.8168C89.0745 21.9023 89.2465 21.9872 89.2465 22.1557C89.2465 22.4091 88.7291 22.4091 88.557 22.4091H78.2891C78.1157 22.4091 77.6843 22.4091 77.6843 22.1557C77.6843 21.9872 77.7697 21.9023 78.0284 21.8168C78.4611 21.6489 78.8912 21.3949 78.9785 20.8881C79.1506 20.2951 78.9786 19.9587 78.6332 19.196C78.0284 17.929 77.3396 16.7443 76.7355 15.5609H67.0651L66.9791 15.7294C66.8931 16.0683 66.2883 17.2498 65.6855 18.52C65.0814 19.8726 64.7366 20.2102 64.9093 20.8868C65.082 21.3936 65.4268 21.647 65.9442 21.8162C66.1163 21.9017 66.289 21.9866 66.289 22.1545C66.289 22.4079 65.8576 22.4079 65.5995 22.4079H60.9367C60.764 22.4079 60.2459 22.4079 60.2459 22.1545C60.2459 21.9866 60.4186 21.9011 60.5913 21.8162C61.1087 21.6477 61.5408 21.5628 62.0595 21.2238C62.4903 20.9704 63.009 20.4636 63.2671 19.9568L63.8712 18.6898L70.5184 5.24293L69.5702 3.63635C68.7074 2.28317 67.7591 1.43807 66.8944 0.930626C66.3769 0.677222 66.0309 0.677222 65.5128 0.508075C65.3395 0.423185 65.1668 0.338294 65.2541 0.169147C65.3414 0 65.5128 0.0848903 65.6001 0H71.8146L71.8133 0.00190053ZM43.3275 14.7969C45.3132 15.4722 47.7303 15.6407 49.6287 15.0503L57.1393 21.3917L57.7434 21.8985C57.7764 21.9317 57.8014 21.9717 57.8165 22.0155C57.8316 22.0594 57.8365 22.106 57.8308 22.1519C57.8308 22.4053 57.3987 22.4053 57.2253 22.4053H49.2846L43.3288 17.5862L38.494 13.7807V19.0237C38.5813 20.2907 39.0988 21.2213 40.9111 21.8111C41.0838 21.8966 41.1698 21.9809 41.1698 22.1494C41.1698 22.4028 40.7377 22.4028 40.5644 22.4028H30.1205C29.8618 22.4028 29.4297 22.4028 29.4297 22.1494C29.4297 21.9809 29.6031 21.896 29.7745 21.8111C31.8442 21.1358 32.103 20.1209 32.1916 18.5169V3.88975C32.1049 2.36933 31.8462 1.26892 29.7745 0.595499C29.6018 0.595499 29.4297 0.426352 29.4297 0.342095C29.4297 0.00443457 29.8618 0.0886914 30.1205 0.0886914H46.9529C47.8672 0.0848564 48.7734 0.257464 49.6196 0.596657C50.4658 0.935849 51.2355 1.43498 51.8848 2.06556C52.5341 2.69613 53.0502 3.4458 53.4036 4.27174C53.7571 5.09768 53.941 5.98373 53.9448 6.87928V6.9363C53.9513 8.74402 53.2248 10.4803 51.9249 11.7636C50.625 13.0469 48.858 13.7722 47.0124 13.7801H41.5146C41.7733 14.2869 42.3774 14.4567 42.8948 14.7107C43.0682 14.7107 43.1535 14.7969 43.3269 14.7969H43.3275ZM43.3275 12.1761H44.0216C46.2653 12.1761 48.165 9.808 48.165 6.76398C48.1611 3.80486 46.2621 1.43807 44.0216 1.43807H38.4933V12.1761H43.3275ZM14.4104 1.4387H9.4908V12.1767H15.1885C17.5169 12.1767 19.328 9.80863 19.328 6.76462C19.328 3.80613 17.5169 1.4387 15.1885 1.4387H14.4104Z" fill="white"/>
</svg>
