<svg viewBox="0 0 105 56" fill="none" xmlns="http://www.w3.org/2000/svg">
<g clip-path="url(#clip0_186_59501)">
<path d="M56.106 2.52502C55.7682 2.57741 55.4435 3.82791 54.7906 4.47936C54.3131 4.94951 53.7172 4.9201 53.4006 5.50135C53.2804 5.71849 53.3193 6.08916 53.1829 6.44506C52.9166 7.15685 51.978 7.22048 51.978 7.99603C51.9748 8.83357 52.7607 8.99353 53.4411 9.58778C53.9722 10.0661 54.0242 10.3959 54.6672 10.6277C55.2162 10.8156 56.0329 10.2016 56.7686 10.422C57.3727 10.6033 57.9508 10.7339 58.0873 11.3575C58.2073 11.9322 58.0791 12.8236 57.3467 12.7208C57.0999 12.693 56.0297 12.3306 54.7144 12.4709C53.1277 12.6522 51.317 13.1729 51.14 14.951C51.0426 15.9452 52.2653 17.1174 53.446 16.8791C54.2628 16.7173 53.8764 15.7494 54.3213 15.2791C54.9042 14.6768 58.2073 17.3819 61.2782 17.3819C62.5709 17.3819 63.5322 17.0538 64.4873 16.0481C64.5764 15.9713 64.6853 15.8064 64.8233 15.7966C64.9533 15.8064 65.1806 15.9353 65.2553 15.9909C67.7286 17.9892 69.5977 21.9973 78.6869 22.0447C79.9649 22.0511 81.4215 22.6651 82.6102 23.7556C83.6707 24.7417 84.2911 26.2747 84.8935 27.8306C85.8029 30.1653 87.4334 32.4363 89.905 34.9635C90.0398 35.099 92.0746 36.6892 92.237 36.8084C92.263 36.8247 92.4124 37.1839 92.3605 37.3846C92.3004 38.8997 92.0811 43.3061 95.3484 43.5053C96.1475 43.5461 95.9379 42.9812 95.9379 42.5926C95.9364 41.8253 95.7966 41.0629 96.1994 40.2776C96.7499 39.1969 95.0318 38.6989 95.0822 36.3626C95.1179 34.6206 93.6628 34.9177 92.9239 33.5904C92.4984 32.8214 92.12 32.4134 92.1477 31.4729C92.3133 26.1801 91.0271 22.7026 90.3857 21.8487C89.8856 21.2039 89.4715 20.9476 89.9293 20.6487C92.656 18.8382 93.2747 17.1533 93.2747 17.1533C94.7248 13.7265 96.0289 10.5966 97.8266 9.21888C98.1887 8.9347 99.1176 8.23767 99.6876 7.96333C101.365 7.16822 102.249 6.68669 102.736 6.20986C103.507 5.454 104.116 3.87854 103.377 2.92346C102.458 1.74467 100.868 2.68018 100.167 3.09807C95.1536 6.08916 94.4147 11.3656 92.6786 14.3959C91.2935 16.8169 89.0411 18.5949 87.0275 18.7402C85.5171 18.8528 83.89 18.5459 82.2693 17.8309C78.328 16.0938 76.1713 13.8506 75.6631 13.4539C74.6042 12.6327 66.3839 4.52014 59.7241 4.18873C59.7241 4.18873 58.8976 2.52514 58.6897 2.49737C58.2024 2.43526 57.704 3.49158 57.3467 3.61416C57.0106 3.72666 56.4455 2.46948 56.106 2.52502ZM26.7875 50.9435C26.1606 50.9288 25.628 50.4113 25.628 49.7713L25.6296 28.8869H18.7831V51.9083C18.7831 53.0365 19.6924 53.9573 20.8081 53.9573H32.7749C33.8986 53.9573 34.7967 53.0365 34.7967 51.9083V28.8869H27.9567L27.9502 49.7713C27.9502 50.4113 27.4175 50.9288 26.7875 50.9435ZM49.7109 28.8869H39.3486C38.1226 28.8869 37.1238 29.8893 37.1238 31.135V53.9572H43.9767V33.0224C43.9816 32.3808 44.498 31.873 45.1346 31.873C45.7745 31.873 46.2876 32.3693 46.3021 33.0045V53.9573H53.1276V33.0043C53.1357 32.3692 53.6489 31.8729 54.287 31.8729C54.9205 31.8729 55.4434 32.3807 55.4483 33.0223V53.9573H62.3012V31.135C62.3012 29.8893 61.3008 28.8869 60.0748 28.8869H49.7109ZM9.62079 33.0664C9.62569 32.3692 9.06058 31.8729 8.46132 31.8729H7.29859V44.5534H8.46132C9.06548 44.5534 9.6258 44.0701 9.62079 43.3764V33.0664ZM14.2149 47.657H7.29859V53.9573H0.455322V28.8869H14.2589C15.4946 28.8869 16.4592 29.8959 16.4592 31.1448V45.3992C16.4592 46.6498 15.4573 47.657 14.2149 47.657ZM85.7851 48.3509C84.4096 48.3509 83.255 49.5459 83.255 50.9941C83.255 52.4471 84.4097 53.6324 85.8289 53.6324C87.2369 53.6324 88.3769 52.4471 88.3769 50.9941C88.3769 49.5427 87.2369 48.3509 85.8288 48.3509H85.7851ZM88.8673 50.9859C88.8673 52.6887 87.5097 54.0732 85.8289 54.0732C84.1302 54.0732 82.7662 52.6986 82.7662 50.9859C82.7662 49.3059 84.1302 47.9019 85.7786 47.9019C87.5097 47.9019 88.8673 49.2636 88.8673 50.9859Z" fill="white"/>
<path d="M85.5122 50.7896C85.988 50.7896 86.2382 50.6198 86.2382 50.2803C86.2382 49.9782 85.9962 49.8232 85.5333 49.8232H85.3969V50.7896H85.5122ZM87.2645 52.7716H86.4476L85.3969 51.3659V52.7716H84.7295V49.2174H85.4311C86.3843 49.2174 86.8909 49.5799 86.8909 50.2721C86.8909 50.7341 86.5922 51.144 86.1748 51.2663L86.126 51.2844L87.2645 52.7716ZM73.7907 44.5579V33.0138C73.7744 32.3754 73.2629 31.8856 72.6247 31.8856C71.9929 31.8856 71.47 32.3949 71.4652 33.0317V44.5579H73.7907ZM73.7907 53.9569V47.6632H71.4652V53.9569H64.6252V31.1346C64.6252 29.8889 65.6239 28.8865 66.85 28.8865H78.4059C79.6353 28.8865 80.634 29.8889 80.634 31.1346V53.9568L73.7907 53.9569Z" fill="white"/>
</g>
<defs>
<clipPath id="clip0_186_59501">
<rect width="103.661" height="55.8173" fill="white" transform="translate(0.455322)"/>
</clipPath>
</defs>
</svg>
