<svg  viewBox="0 0 64 64" fill="none" xmlns="http://www.w3.org/2000/svg">
<path d="M32.0178 57.6014C28.4944 57.6014 25.1772 56.9347 22.0661 55.6014C18.955 54.268 16.2327 52.4347 13.8994 50.1014C11.5661 47.768 9.73275 45.0467 8.39941 41.9375C7.06608 38.8282 6.39941 35.506 6.39941 31.9708C6.39941 28.4356 7.06608 25.1236 8.39941 22.0347C9.73275 18.9458 11.5661 16.2347 13.8994 13.9014C16.2327 11.568 18.954 9.7347 22.0633 8.40137C25.1726 7.06803 28.4948 6.40137 32.0299 6.40137C35.5651 6.40137 38.8772 7.06803 41.9661 8.40137C45.055 9.7347 47.7661 11.568 50.0994 13.9014C52.4328 16.2347 54.2661 18.9508 55.5994 22.0496C56.9328 25.1485 57.5994 28.4596 57.5994 31.983C57.5994 35.5063 56.9328 38.8236 55.5994 41.9347C54.2661 45.0458 52.4328 47.768 50.0994 50.1014C47.7661 52.4347 45.05 54.268 41.9511 55.6014C38.8523 56.9347 35.5411 57.6014 32.0178 57.6014ZM31.9994 52.8014C37.7772 52.8014 42.6883 50.7791 46.7327 46.7347C50.7772 42.6903 52.7994 37.7791 52.7994 32.0014C52.7994 26.2236 50.7772 21.3125 46.7327 17.268C42.6883 13.2236 37.7772 11.2014 31.9994 11.2014C26.2216 11.2014 21.3105 13.2236 17.2661 17.268C13.2216 21.3125 11.1994 26.2236 11.1994 32.0014C11.1994 37.7791 13.2216 42.6903 17.2661 46.7347C21.3105 50.7791 26.2216 52.8014 31.9994 52.8014Z" fill="#00FF9F"/>
<path d="M28.6965 41.7953L45.3337 25.6146L42.0298 22.4014L28.6965 35.3689L21.9708 28.8278L18.667 32.041L28.6965 41.7953Z" fill="#00FF9F"/>
</svg>
