<svg  viewBox="0 0 32 32" fill="none" xmlns="http://www.w3.org/2000/svg">
<path d="M9.50655 11.8888C13.0909 8.38797 18.9093 8.38797 22.4936 11.8888L22.9251 12.3133C23.106 12.4873 23.106 12.7727 22.9251 12.9466L21.4496 14.3873C21.3591 14.4778 21.213 14.4778 21.1225 14.3873L20.5309 13.8097C18.0254 11.3668 13.9748 11.3668 11.4692 13.8097L10.8359 14.4291C10.7454 14.5196 10.5992 14.5196 10.5088 14.4291L9.03328 12.9884C8.85232 12.8144 8.85232 12.5291 9.03328 12.3551L9.50655 11.8888ZM25.5489 14.8676L26.8643 16.1482C27.0453 16.3222 27.0453 16.6075 26.8643 16.7815L20.9415 22.5651C20.7606 22.7391 20.4683 22.7391 20.2943 22.5651L16.0905 18.4588C16.0488 18.4171 15.9722 18.4171 15.9305 18.4588L11.7267 22.5651C11.5458 22.7391 11.2535 22.7391 11.0795 22.5651L5.13578 16.7815C4.95482 16.6075 4.95482 16.3222 5.13578 16.1482L6.45118 14.8676C6.63214 14.6936 6.92445 14.6936 7.09845 14.8676L11.3022 18.9738C11.3439 19.0156 11.4205 19.0156 11.4623 18.9738L15.666 14.8676C15.8469 14.6936 16.1393 14.6936 16.3133 14.8676L20.517 18.9738C20.5587 19.0156 20.6353 19.0156 20.6771 18.9738L24.8808 14.8676C25.0757 14.6936 25.368 14.6936 25.5489 14.8676Z" fill="#0270FF"/>
</svg>
