<svg viewBox="0 0 24 24" fill="none" xmlns="http://www.w3.org/2000/svg">
<path fill-rule="evenodd" clip-rule="evenodd" d="M10.5926 11.95L8.19995 14.3426L9.5573 15.7L11.95 13.3073L14.3426 15.7L15.7 14.3426L13.3073 11.95L15.7 9.5573L14.3426 8.19995L11.95 10.5926L9.5573 8.19995L8.19995 9.5573L10.5926 11.95Z" fill="#E9D100"/>
<path d="M12.0068 21.5999C10.6855 21.5999 9.44157 21.3499 8.2749 20.8499C7.10824 20.3499 6.0874 19.6624 5.2124 18.7874C4.3374 17.9124 3.6499 16.8919 3.1499 15.726C2.6499 14.56 2.3999 13.3141 2.3999 11.9885C2.3999 10.6628 2.6499 9.42074 3.1499 8.2624C3.6499 7.10407 4.3374 6.0874 5.2124 5.2124C6.0874 4.3374 7.10789 3.6499 8.27385 3.1499C9.43984 2.6499 10.6857 2.3999 12.0114 2.3999C13.3371 2.3999 14.5791 2.6499 15.7374 3.1499C16.8957 3.6499 17.9124 4.3374 18.7874 5.2124C19.6624 6.0874 20.3499 7.10594 20.8499 8.268C21.3499 9.43009 21.5999 10.6718 21.5999 11.993C21.5999 13.3143 21.3499 14.5582 20.8499 15.7249C20.3499 16.8916 19.6624 17.9124 18.7874 18.7874C17.9124 19.6624 16.8939 20.3499 15.7318 20.8499C14.5697 21.3499 13.3281 21.5999 12.0068 21.5999ZM11.9999 19.7999C14.1666 19.7999 16.0082 19.0416 17.5249 17.5249C19.0416 16.0082 19.7999 14.1666 19.7999 11.9999C19.7999 9.83324 19.0416 7.99157 17.5249 6.4749C16.0082 4.95824 14.1666 4.1999 11.9999 4.1999C9.83324 4.1999 7.99157 4.95824 6.4749 6.4749C4.95824 7.99157 4.1999 9.83324 4.1999 11.9999C4.1999 14.1666 4.95824 16.0082 6.4749 17.5249C7.99157 19.0416 9.83324 19.7999 11.9999 19.7999Z" fill="#E9D100"/>
</svg>
